<svg width="800" height="800" viewBox="0 0 800 800" fill="none" xmlns="http://www.w3.org/2000/svg">
<path fill-rule="evenodd" clip-rule="evenodd" d="M510.454 464.822C512.963 466.305 515.75 469.389 515.289 473.96L515.161 474.852L515.135 475.027C513.961 481.342 508.925 486.547 502.119 487.909L501.917 487.935C437.942 500.635 389.972 506.629 345.226 495.621C324.454 493.377 305.296 487.402 288.47 476.661C276.238 468.857 265.403 458.994 256.155 446.473C243.207 428.943 233.504 406.352 227.309 377.186C219.064 338.358 223.641 298.871 240.108 264.499L241.712 261.244C241.919 260.844 241.984 260.271 241.684 259.538C241.377 258.79 240.765 258.124 240.017 257.775C234.82 255.287 230.184 251.731 226.386 247.235C224.352 244.838 222.622 242.241 221.211 239.508C217.851 232.987 216.307 225.622 216.743 217.989L216.915 215.987C218.046 205.326 223.023 195.559 231.029 188.147L232.554 186.79C237.098 182.96 242.259 180.118 247.744 178.342C252.607 176.766 257.729 176.033 262.919 176.235L264.107 176.304L266.004 176.46L266.132 176.484C271.04 177.033 275.721 178.394 280.019 180.496C284.763 182.826 289.032 186.053 292.618 190.086L293.274 190.844L294.103 191.854C294.915 192.884 295.678 193.942 296.391 195.045C297.348 196.519 299.013 196.758 299.782 196.408L300.098 196.222C317.037 185.098 336.618 176.379 358.684 170.722C382.362 164.639 405.249 163.044 426.773 165.281L427.123 165.291C427.917 165.258 429.226 164.404 429.463 162.727C429.612 161.695 429.801 160.672 430.027 159.642L430.273 158.606L430.556 157.547C436.708 135.432 460.095 122.497 482.968 128.174C506.21 133.926 520.895 156.898 515.203 179.661C515.011 180.413 514.803 181.169 514.571 181.913C514.331 182.676 514.071 183.426 513.787 184.181C512.604 187.347 511.054 190.336 509.155 193.078C508.701 193.734 508.499 194.556 508.588 195.317C508.621 195.632 508.7 195.903 508.813 196.116C508.952 196.392 509.146 196.605 509.369 196.777L510.016 197.25L512.151 198.846C541.13 220.848 562.76 252.002 573.871 288.273L574.558 290.549C588.754 338.381 585.072 374.509 568.602 404.798C555.579 428.747 534.418 446.969 508.01 460.919C507.797 461.032 507.618 461.188 507.479 461.37C507.26 461.654 507.143 462.018 507.152 462.44C507.161 463.082 507.453 463.477 507.92 463.683L509.269 464.209L509.538 464.339L510.201 464.689L510.339 464.761L510.454 464.822Z" fill="white"/>
<path d="M412.192 141.508C425.404 113.092 457.778 98.3757 488.474 105.994L488.472 105.998C523.103 114.576 546.347 149.326 537.374 185.207L537.363 185.256L537.349 185.306C537.088 186.331 536.773 187.487 536.393 188.709L536.37 188.783C536.341 188.873 536.308 188.961 536.279 189.051C563.496 212.845 583.867 244.123 595.13 279.676L595.722 281.581L595.738 281.626L595.751 281.67L596.438 283.948L596.453 283.998L596.468 284.05C611.989 336.348 608.66 378.972 588.68 415.718C576.537 438.047 558.851 455.655 538.043 469.605C538.253 471.699 538.263 473.915 538.028 476.252L537.98 476.736L537.91 477.216L537.783 478.107L537.772 478.181L537.762 478.254L537.735 478.429L537.677 478.819L537.604 479.205C534.684 494.914 522.353 507.17 506.603 510.321L505.824 510.478L505.586 510.506C442.599 522.984 390.756 529.961 341.255 518.172C318.194 515.493 296.054 508.618 276.177 495.93C261.665 486.671 248.741 474.905 237.771 460.054C222.44 439.297 211.652 413.473 204.953 381.938L204.952 381.936C196.681 342.985 199.861 303.203 213.976 267.307C212.216 265.651 210.541 263.89 208.963 262.023L208.961 262.025C205.791 258.291 203.099 254.247 200.904 249.996L200.894 249.979C195.604 239.713 193.263 228.266 193.925 216.687L193.944 216.363L193.971 216.039L194.143 214.037L194.164 213.808L194.187 213.578C195.919 197.258 203.557 182.438 215.504 171.379L215.664 171.228L215.83 171.082L217.586 169.516L217.826 169.315C224.637 163.576 232.41 159.287 240.704 156.601C247.612 154.363 254.902 153.238 262.32 153.36L263.807 153.4L264.028 153.408L264.252 153.421L265.44 153.491L265.71 153.506L265.98 153.529L269.027 153.78L269.625 153.89C276.286 154.733 282.747 156.569 288.801 159.369L290.064 159.97L290.077 159.976L290.093 159.984C294.58 162.187 298.794 164.912 302.66 168.112C317.972 159.849 334.792 153.256 352.997 148.589L355.452 147.972C374.797 143.221 393.804 141.14 412.192 141.508ZM482.968 128.177C460.095 122.5 436.708 135.434 430.556 157.548L430.272 158.609L430.028 159.644C429.802 160.675 429.612 161.698 429.463 162.73C429.226 164.406 427.917 165.259 427.123 165.293L426.772 165.283C405.249 163.047 382.362 164.642 358.684 170.725C336.618 176.381 317.036 185.101 300.097 196.224L299.781 196.409C299.012 196.759 297.348 196.52 296.391 195.046C295.678 193.944 294.916 192.887 294.104 191.856L293.275 190.846L292.617 190.088C289.032 186.055 284.762 182.828 280.019 180.498C275.721 178.396 271.04 177.037 266.132 176.487L266.003 176.462L264.107 176.306L262.919 176.236C257.73 176.035 252.607 176.768 247.745 178.344C242.26 180.12 237.097 182.963 232.553 186.792L231.029 188.15C223.023 195.562 218.047 205.329 216.915 215.99L216.742 217.992C216.306 225.625 217.85 232.989 221.21 239.509C222.621 242.242 224.351 244.841 226.386 247.238C230.184 251.734 234.821 255.29 240.018 257.777C240.765 258.126 241.377 258.792 241.684 259.54C241.984 260.272 241.918 260.846 241.711 261.246L240.108 264.501C223.642 298.873 219.063 338.36 227.308 377.188C233.503 406.353 243.207 428.946 256.155 446.476C265.403 458.997 276.239 468.859 288.471 476.663C305.296 487.404 324.454 493.379 345.226 495.623C389.972 506.631 437.942 500.637 501.917 487.936L502.119 487.911C508.925 486.549 513.96 481.345 515.134 475.03L515.161 474.854L515.288 473.963C515.748 469.392 512.963 466.307 510.454 464.824L510.34 464.763L510.201 464.691L509.538 464.34L509.268 464.211L507.92 463.685C507.453 463.479 507.162 463.084 507.152 462.443C507.143 462.021 507.259 461.656 507.478 461.373C507.617 461.191 507.797 461.034 508.01 460.921C534.418 446.972 555.578 428.749 568.601 404.801C585.071 374.512 588.753 338.384 574.558 290.552L573.871 288.275C562.76 252.004 541.129 220.85 512.151 198.849L510.016 197.252L509.368 196.78C509.145 196.607 508.952 196.393 508.813 196.118C508.7 195.905 508.622 195.634 508.589 195.32C508.499 194.56 508.7 193.737 509.154 193.081C511.053 190.339 512.604 187.349 513.786 184.183C514.07 183.428 514.331 182.678 514.571 181.916C514.802 181.172 515.01 180.415 515.201 179.663C520.894 156.9 506.209 133.928 482.968 128.177Z" fill="url(#paint0_linear_2440_3910)"/>
<path d="M346.104 287.164C346.432 302.969 334.388 316.036 319.203 316.352C304.018 316.667 291.442 304.111 291.114 288.307C290.785 272.502 302.829 259.435 318.014 259.119C333.2 258.804 345.776 271.36 346.104 287.164Z" fill="#313937"/>
<path d="M333.767 273.36C335.323 280.677 330.652 287.87 323.335 289.425C316.018 290.98 308.825 286.309 307.27 278.992C305.715 271.675 310.386 264.483 317.703 262.928C325.02 261.372 332.212 266.043 333.767 273.36Z" fill="white"/>
<path d="M334.749 299.691C335.656 303.959 332.438 308.26 327.56 309.297C322.682 310.333 317.992 307.714 317.084 303.446C316.177 299.177 319.396 294.877 324.274 293.84C329.152 292.803 333.842 295.423 334.749 299.691Z" fill="white"/>
<path d="M440.204 267.165C446.332 281.736 462.65 288.776 476.65 282.888C490.651 276.999 497.033 260.413 490.905 245.842C484.776 231.27 468.459 224.231 454.458 230.119C440.457 236.007 434.076 252.593 440.204 267.165Z" fill="#313937"/>
<path d="M444.173 249.895C445.728 257.212 453.415 261.778 461.341 260.093C469.268 258.408 474.433 251.111 472.878 243.794C471.323 236.477 463.636 231.911 455.709 233.596C447.782 235.281 442.617 242.578 444.173 249.895Z" fill="white"/>
<path d="M456.195 273.879C457.102 278.147 461.792 280.767 466.67 279.73C471.548 278.693 474.767 274.393 473.859 270.124C472.952 265.856 468.262 263.237 463.384 264.273C458.506 265.31 455.287 269.611 456.195 273.879Z" fill="white"/>
<path fill-rule="evenodd" clip-rule="evenodd" d="M367.436 304.359C365.223 293.947 374.812 285.412 393.07 281.531C411.622 277.587 424.022 281.448 426.236 291.861C429.209 305.85 418.466 320.03 402.274 323.472C386.038 326.923 370.409 318.348 367.436 304.359Z" fill="#313937"/>
<path d="M355.22 347.273C354.239 344.642 355.578 341.714 358.21 340.733C360.842 339.753 363.77 341.092 364.75 343.724C366.751 349.097 370.826 352.733 377.184 354.117C385.64 355.406 391.86 352.78 395.523 348.218C399.286 343.532 401.1 335.859 398.589 325.777C397.91 323.052 399.57 320.292 402.295 319.614C405.02 318.935 407.778 320.593 408.457 323.319C411.517 335.608 409.71 346.794 403.453 354.586C397.116 362.478 386.965 365.949 375.469 364.144L375.335 364.122L375.203 364.094C365.538 362.044 358.509 356.106 355.22 347.273Z" fill="#313937"/>
<path d="M456.787 325.686C456.612 322.883 454.198 320.753 451.395 320.928C448.592 321.103 446.462 323.517 446.637 326.32C446.994 332.042 444.75 337.021 439.505 340.872C432.305 345.489 425.554 345.62 420.352 342.942C415.008 340.192 410.231 333.92 408.424 323.688C407.935 320.922 405.297 319.077 402.531 319.565C399.766 320.054 397.921 322.69 398.409 325.456C400.612 337.928 406.812 347.412 415.698 351.985C424.697 356.617 435.382 355.659 445.151 349.334L445.264 349.26L445.373 349.18C453.369 343.377 457.374 335.093 456.787 325.686Z" fill="#313937"/>
<path d="M400.685 311.331C403.432 310.747 406.131 312.501 406.715 315.247L409.675 329.174C410.259 331.921 408.506 334.621 405.759 335.205C403.012 335.788 400.313 334.035 399.729 331.288L396.769 317.361C396.185 314.614 397.938 311.915 400.685 311.331Z" fill="#313937"/>
<path d="M387.501 290.556C389.455 290.141 391.374 291.388 391.79 293.341C392.205 295.295 390.958 297.215 389.005 297.63C385.028 298.475 382.803 301.444 382.017 302.814C381.024 304.546 378.814 305.145 377.081 304.153C375.349 303.159 374.748 300.95 375.741 299.217C376.993 297.031 380.63 292.017 387.501 290.556Z" fill="white"/>
<path fill-rule="evenodd" clip-rule="evenodd" d="M249.861 246.3C260.332 229.726 273.499 214.863 288.899 202.421C282.089 195.575 272.051 192.218 261.903 194.375C246.01 197.754 235.865 213.376 239.243 229.269C240.736 236.292 244.62 242.193 249.861 246.3Z" fill="#41C3A8"/>
<path fill-rule="evenodd" clip-rule="evenodd" d="M496.509 191.718C480.202 180.835 462.128 172.613 442.999 167.511C446.436 158.486 454.241 151.337 464.389 149.18C480.282 145.802 495.904 155.947 499.282 171.84C500.775 178.863 499.627 185.834 496.509 191.718Z" fill="#41C3A8"/>
<path d="M299.898 334.09C301.815 343.112 291.821 352.881 277.576 355.909C263.33 358.937 250.227 354.078 248.309 345.055C246.391 336.033 256.385 326.264 270.631 323.236C284.877 320.208 297.98 325.067 299.898 334.09Z" fill="#FFBEBF"/>
<path d="M545.803 281.82C547.721 290.843 537.727 300.611 523.481 303.639C509.236 306.667 496.132 301.808 494.215 292.786C492.297 283.763 502.291 273.995 516.537 270.967C530.782 267.939 543.886 272.798 545.803 281.82Z" fill="#FFBEBF"/>
<path d="M147.28 663.192C115.516 663.192 91.7314 639.564 91.7314 608.269C91.7314 576.974 115.516 553.346 147.28 553.346C179.045 553.346 202.829 576.974 202.829 608.269C202.829 639.564 179.045 663.192 147.28 663.192ZM147.28 645.041C166.839 645.041 179.983 630.332 179.983 608.269C179.983 586.206 166.839 571.498 147.28 571.498C127.721 571.498 114.577 586.206 114.577 608.269C114.577 630.332 127.721 645.041 147.28 645.041Z" fill="url(#paint1_linear_2440_3910)"/>
<path d="M260.149 580.73C276.892 580.73 287.532 592.309 287.532 610.303V650.987C287.532 658.185 284.089 661.94 277.517 661.94C270.946 661.94 267.503 658.185 267.503 650.987V613.433C267.503 603.262 262.183 597.472 253.107 597.472C244.032 597.472 238.712 603.418 238.712 613.433V650.987C238.712 658.185 235.269 661.94 228.697 661.94C222.125 661.94 218.683 658.185 218.683 650.987V591.057C218.683 585.111 221.812 581.825 227.289 581.825C232.453 581.825 235.426 584.954 235.895 590.744L236.052 593.248C240.589 585.424 249.508 580.73 260.149 580.73Z" fill="url(#paint2_linear_2440_3910)"/>
<path d="M342.511 580.73C364.261 580.73 378.813 595.125 378.813 616.562V619.222C378.813 625.481 375.371 629.08 368.955 629.08H322.169C324.516 640.972 332.653 647.231 345.797 647.231C351.117 647.231 356.124 646.136 361.757 643.946C363.635 643.163 365.356 642.85 367.234 642.85C371.459 642.85 374.588 645.98 374.588 650.048C374.588 653.334 372.241 656.307 367.86 658.654C362.54 661.627 354.403 663.192 345.171 663.192C319.04 663.192 301.514 646.606 301.514 621.883C301.514 597.942 318.727 580.73 342.511 580.73ZM341.416 596.064C331.088 596.064 324.047 602.949 322.169 614.528H359.097C358.315 603.106 351.743 596.064 341.416 596.064Z" fill="url(#paint3_linear_2440_3910)"/>
<path d="M438.4 580.73C460.775 580.73 476.266 597.472 476.266 621.883C476.266 646.293 460.775 663.192 438.4 663.192C426.507 663.192 416.493 658.341 411.173 650.048L410.86 653.021C410.39 658.967 407.417 662.097 402.254 662.097C396.777 662.097 393.648 658.654 393.648 652.708V562.422C393.648 555.224 397.09 551.469 403.662 551.469C410.234 551.469 413.676 555.224 413.676 562.422V590.588C419.31 584.329 428.072 580.73 438.4 580.73ZM434.644 647.231C447.006 647.231 455.768 636.591 455.768 621.883C455.768 607.174 447.006 596.69 434.644 596.69C422.283 596.69 413.52 607.174 413.52 621.883C413.52 636.591 422.283 647.231 434.644 647.231Z" fill="url(#paint4_linear_2440_3910)"/>
<path d="M526.033 580.73C547.783 580.73 562.335 595.125 562.335 616.562V619.222C562.335 625.481 558.893 629.08 552.477 629.08H505.691C508.038 640.972 516.175 647.231 529.319 647.231C534.639 647.231 539.646 646.136 545.279 643.946C547.157 643.163 548.878 642.85 550.756 642.85C554.981 642.85 558.11 645.98 558.11 650.048C558.11 653.334 555.763 656.307 551.382 658.654C546.062 661.627 537.925 663.192 528.693 663.192C502.562 663.192 485.036 646.606 485.036 621.883C485.036 597.942 502.249 580.73 526.033 580.73ZM524.938 596.064C514.61 596.064 507.569 602.949 505.691 614.528H542.619C541.837 603.106 535.265 596.064 524.938 596.064Z" fill="url(#paint5_linear_2440_3910)"/>
<path d="M609.247 580.73C631.154 580.73 641.95 590.9 641.95 611.555V652.708C641.95 658.654 638.664 662.097 633.344 662.097C628.181 662.097 625.051 658.967 624.582 653.021V652.865C619.261 659.593 611.125 663.192 600.954 663.192C583.272 663.192 572.006 652.708 572.006 636.435C572.006 619.535 583.742 608.895 602.206 608.895C610.655 608.895 617.697 611.086 622.391 615.154V610.46C622.391 600.915 617.54 596.377 607.369 596.377C602.362 596.377 597.511 597.472 591.565 599.976C589.844 600.758 587.966 601.228 586.089 601.228C581.707 601.228 578.578 598.255 578.578 594.186C578.578 590.588 580.925 587.614 585.619 585.424C591.878 582.451 600.172 580.73 609.247 580.73ZM606.9 647.544C615.819 647.544 622.078 642.537 622.078 635.339C622.078 628.142 615.819 623.134 606.9 623.134C597.981 623.134 591.722 628.142 591.722 635.339C591.722 642.537 597.981 647.544 606.9 647.544Z" fill="url(#paint6_linear_2440_3910)"/>
<path d="M698.127 581.043C704.699 581.043 708.298 584.329 708.298 590.275C708.298 596.847 704.543 600.132 695.937 600.915C685.766 601.854 681.854 607.487 681.854 621.57V650.987C681.854 658.185 678.411 661.94 671.84 661.94C665.268 661.94 661.825 658.185 661.825 650.987V590.588C661.825 585.111 664.798 581.825 670.118 581.825C674.969 581.825 678.099 584.798 678.568 590.275L679.037 596.69C682.949 586.676 689.521 581.043 698.127 581.043Z" fill="url(#paint7_linear_2440_3910)"/>
<defs>
<linearGradient id="paint0_linear_2440_3910" x1="571.053" y1="480.423" x2="227.054" y2="177.924" gradientUnits="userSpaceOnUse">
<stop stop-color="#35B0A6"/>
<stop offset="1" stop-color="#4CD6AA"/>
</linearGradient>
<linearGradient id="paint1_linear_2440_3910" x1="86.4113" y1="610.002" x2="709.411" y2="610.002" gradientUnits="userSpaceOnUse">
<stop stop-color="#5CC3B4"/>
<stop offset="1" stop-color="#15A591"/>
</linearGradient>
<linearGradient id="paint2_linear_2440_3910" x1="86.4113" y1="610.002" x2="709.411" y2="610.002" gradientUnits="userSpaceOnUse">
<stop stop-color="#5CC3B4"/>
<stop offset="1" stop-color="#15A591"/>
</linearGradient>
<linearGradient id="paint3_linear_2440_3910" x1="86.4113" y1="610.002" x2="709.411" y2="610.002" gradientUnits="userSpaceOnUse">
<stop stop-color="#5CC3B4"/>
<stop offset="1" stop-color="#15A591"/>
</linearGradient>
<linearGradient id="paint4_linear_2440_3910" x1="86.4113" y1="610.002" x2="709.411" y2="610.002" gradientUnits="userSpaceOnUse">
<stop stop-color="#5CC3B4"/>
<stop offset="1" stop-color="#15A591"/>
</linearGradient>
<linearGradient id="paint5_linear_2440_3910" x1="86.4113" y1="610.002" x2="709.411" y2="610.002" gradientUnits="userSpaceOnUse">
<stop stop-color="#5CC3B4"/>
<stop offset="1" stop-color="#15A591"/>
</linearGradient>
<linearGradient id="paint6_linear_2440_3910" x1="86.4113" y1="610.002" x2="709.411" y2="610.002" gradientUnits="userSpaceOnUse">
<stop stop-color="#5CC3B4"/>
<stop offset="1" stop-color="#15A591"/>
</linearGradient>
<linearGradient id="paint7_linear_2440_3910" x1="86.4113" y1="610.002" x2="709.411" y2="610.002" gradientUnits="userSpaceOnUse">
<stop stop-color="#5CC3B4"/>
<stop offset="1" stop-color="#15A591"/>
</linearGradient>
</defs>
</svg>
