<svg width="1000" height="400" viewBox="0 0 1000 400" fill="none" xmlns="http://www.w3.org/2000/svg">
<path fill-rule="evenodd" clip-rule="evenodd" d="M240.546 272.229C241.842 272.995 243.282 274.589 243.044 276.95L242.978 277.411L242.964 277.501C242.358 280.764 239.756 283.452 236.24 284.156L236.136 284.169C203.086 290.73 178.305 293.827 155.19 288.14C144.459 286.981 134.562 283.894 125.87 278.345C119.551 274.314 113.953 269.219 109.176 262.75C102.487 253.694 97.4743 242.024 94.2739 226.957C90.0147 206.898 92.3794 186.5 100.886 168.743L101.715 167.062C101.822 166.855 101.855 166.559 101.7 166.181C101.541 165.794 101.225 165.45 100.839 165.269C98.1544 163.984 95.7595 162.148 93.7974 159.825C92.7464 158.586 91.8528 157.245 91.1238 155.833C89.388 152.464 88.5903 148.66 88.8157 144.716L88.9044 143.682C89.4888 138.175 92.0598 133.129 96.1959 129.3L96.9834 128.599C99.3311 126.621 101.997 125.152 104.831 124.235C107.343 123.421 109.989 123.042 112.67 123.146L113.284 123.182L114.264 123.263L114.33 123.275C116.865 123.559 119.284 124.261 121.504 125.348C123.955 126.551 126.16 128.218 128.012 130.301L128.352 130.693L128.78 131.215C129.199 131.747 129.593 132.294 129.962 132.863C130.456 133.625 131.316 133.748 131.713 133.568L131.877 133.472C140.627 127.725 150.743 123.22 162.142 120.298C174.374 117.156 186.197 116.332 197.317 117.487L197.497 117.493C197.907 117.476 198.584 117.034 198.706 116.168C198.783 115.635 198.881 115.107 198.997 114.574L199.124 114.039L199.271 113.492C202.449 102.067 214.53 95.3854 226.347 98.3182C238.353 101.289 245.94 113.157 242.999 124.916C242.9 125.305 242.793 125.695 242.673 126.08C242.549 126.474 242.414 126.861 242.268 127.251C241.657 128.887 240.856 130.431 239.875 131.848C239.64 132.186 239.536 132.611 239.582 133.004C239.599 133.167 239.64 133.307 239.698 133.417C239.77 133.559 239.87 133.669 239.985 133.758L240.32 134.003L241.423 134.827C256.393 146.193 267.567 162.287 273.307 181.025L273.662 182.201C280.995 206.911 279.093 225.574 270.585 241.221C263.857 253.593 252.925 263.007 239.283 270.213C239.173 270.271 239.081 270.352 239.009 270.446C238.896 270.593 238.835 270.781 238.84 270.999C238.845 271.33 238.995 271.535 239.237 271.641L239.934 271.913L240.073 271.98L240.415 272.161L240.487 272.198L240.546 272.229Z" fill="white"/>
<path d="M189.784 105.204C196.609 90.525 213.334 82.9226 229.191 86.8583L229.19 86.8603C247.081 91.2917 259.088 109.243 254.453 127.78L254.447 127.804L254.44 127.83C254.305 128.36 254.143 128.957 253.946 129.589L253.934 129.627C253.919 129.673 253.902 129.719 253.887 129.765C267.947 142.057 278.471 158.215 284.29 176.582L284.595 177.566L284.603 177.589L284.61 177.612L284.965 178.788L284.973 178.814L284.981 178.841C292.999 205.859 291.279 227.878 280.957 246.86C274.684 258.396 265.548 267.492 254.799 274.698C254.907 275.78 254.912 276.925 254.791 278.132L254.766 278.382L254.73 278.631L254.664 279.091L254.658 279.129L254.653 279.166L254.639 279.257L254.609 279.458L254.572 279.658C253.063 287.773 246.693 294.104 238.557 295.732L238.154 295.813L238.032 295.828C205.492 302.274 178.711 305.878 153.139 299.788C141.225 298.404 129.788 294.852 119.52 288.298C112.023 283.515 105.346 277.436 99.679 269.764C91.7589 259.041 86.186 245.701 82.7256 229.41L82.7246 229.409C78.4519 209.287 80.0948 188.736 87.3868 170.192C86.4776 169.337 85.6123 168.427 84.7967 167.463L84.7957 167.464C83.1584 165.534 81.7675 163.445 80.6335 161.249L80.6285 161.24C77.8959 155.937 76.6863 150.023 77.0282 144.042L77.0382 143.874L77.0521 143.707L77.1408 142.673L77.1518 142.554L77.1637 142.436C78.0583 134.005 82.0042 126.349 88.1758 120.636L88.2585 120.558L88.3442 120.482L89.2517 119.673L89.3752 119.57C92.8939 116.605 96.9097 114.389 101.194 113.002C104.763 111.846 108.529 111.264 112.361 111.327L113.129 111.348L113.243 111.352L113.359 111.359L113.973 111.395L114.112 111.403L114.252 111.415L115.826 111.544L116.134 111.601C119.576 112.036 122.913 112.985 126.041 114.431L126.693 114.742L126.7 114.745L126.708 114.749C129.026 115.887 131.203 117.295 133.2 118.948C141.111 114.679 149.8 111.274 159.205 108.863L160.473 108.544C170.466 106.089 180.285 105.015 189.784 105.204ZM226.347 98.3177C214.531 95.3849 202.449 102.067 199.271 113.491L199.125 114.039L198.998 114.574C198.882 115.106 198.783 115.635 198.706 116.168C198.584 117.034 197.908 117.474 197.498 117.492L197.317 117.487C186.197 116.331 174.374 117.155 162.142 120.298C150.743 123.22 140.627 127.724 131.877 133.471L131.713 133.567C131.316 133.747 130.456 133.624 129.962 132.862C129.594 132.293 129.2 131.747 128.78 131.214L128.352 130.692L128.012 130.301C126.16 128.218 123.955 126.55 121.504 125.347C119.284 124.261 116.865 123.559 114.33 123.275L114.264 123.262L113.284 123.181L112.671 123.145C109.99 123.041 107.343 123.42 104.831 124.234C101.998 125.151 99.331 126.62 96.9833 128.598L96.1963 129.3C92.0602 133.129 89.4894 138.175 88.905 143.682L88.8154 144.716C88.5901 148.659 89.388 152.463 91.1236 155.832C91.8526 157.244 92.7464 158.586 93.7974 159.825C95.7595 162.147 98.155 163.984 100.84 165.269C101.226 165.449 101.542 165.793 101.7 166.179C101.855 166.558 101.821 166.855 101.714 167.061L100.886 168.743C92.38 186.499 90.0145 206.898 94.2736 226.956C97.474 242.023 102.487 253.694 109.176 262.75C113.954 269.218 119.552 274.313 125.87 278.345C134.562 283.893 144.459 286.98 155.19 288.139C178.306 293.826 203.086 290.729 236.136 284.168L236.24 284.156C239.756 283.452 242.357 280.763 242.964 277.501L242.978 277.41L243.044 276.95C243.281 274.589 241.842 272.995 240.546 272.229L240.487 272.197L240.416 272.16L240.073 271.979L239.933 271.912L239.237 271.64C238.996 271.534 238.845 271.33 238.84 270.999C238.836 270.781 238.896 270.592 239.009 270.446C239.081 270.352 239.174 270.271 239.284 270.213C252.926 263.006 263.857 253.592 270.585 241.221C279.093 225.574 280.995 206.91 273.662 182.2L273.307 181.024C267.567 162.287 256.393 146.193 241.423 134.827L240.32 134.002L239.985 133.758C239.87 133.669 239.77 133.558 239.698 133.416C239.64 133.306 239.6 133.166 239.583 133.004C239.536 132.611 239.64 132.186 239.875 131.847C240.856 130.431 241.657 128.886 242.267 127.251C242.414 126.861 242.549 126.473 242.673 126.079C242.793 125.695 242.9 125.304 242.999 124.915C245.939 113.156 238.353 101.289 226.347 98.3177Z" fill="url(#paint0_linear_2440_3988)"/>
<path d="M155.643 180.448C155.813 188.612 149.591 195.363 141.746 195.526C133.902 195.689 127.405 189.202 127.236 181.038C127.066 172.874 133.288 166.123 141.132 165.96C148.977 165.797 155.473 172.284 155.643 180.448Z" fill="#313937"/>
<path d="M149.269 173.321C150.072 177.1 147.66 180.816 143.88 181.619C140.1 182.422 136.385 180.01 135.582 176.23C134.778 172.45 137.191 168.735 140.971 167.932C144.75 167.128 148.466 169.541 149.269 173.321Z" fill="white"/>
<path d="M149.776 186.92C150.245 189.125 148.582 191.346 146.063 191.882C143.543 192.417 141.121 191.064 140.652 188.86C140.183 186.655 141.846 184.434 144.366 183.898C146.885 183.363 149.308 184.716 149.776 186.92Z" fill="white"/>
<path d="M204.255 170.118C207.421 177.646 215.85 181.282 223.083 178.241C230.315 175.199 233.612 166.631 230.446 159.103C227.281 151.576 218.851 147.939 211.618 150.981C204.386 154.023 201.089 162.591 204.255 170.118Z" fill="#313937"/>
<path d="M206.306 161.198C207.109 164.978 211.08 167.337 215.175 166.466C219.27 165.596 221.938 161.826 221.134 158.046C220.331 154.267 216.36 151.908 212.265 152.778C208.17 153.649 205.502 157.418 206.306 161.198Z" fill="white"/>
<path d="M212.516 173.586C212.984 175.791 215.407 177.144 217.926 176.608C220.446 176.073 222.108 173.852 221.64 171.647C221.171 169.442 218.749 168.089 216.229 168.625C213.71 169.16 212.047 171.382 212.516 173.586Z" fill="white"/>
<path fill-rule="evenodd" clip-rule="evenodd" d="M166.663 189.334C165.52 183.954 170.474 179.545 179.905 177.541C189.49 175.503 195.895 177.498 197.039 182.877C198.575 190.104 193.025 197.429 184.66 199.207C176.273 200.99 168.199 196.56 166.663 189.334Z" fill="#313937"/>
<path d="M160.352 211.501C159.846 210.141 160.538 208.629 161.897 208.122C163.257 207.616 164.769 208.308 165.276 209.667C166.309 212.443 168.414 214.321 171.699 215.036C176.067 215.702 179.28 214.346 181.172 211.989C183.116 209.568 184.053 205.605 182.756 200.396C182.405 198.988 183.263 197.563 184.671 197.212C186.078 196.862 187.503 197.719 187.853 199.126C189.435 205.475 188.501 211.253 185.269 215.279C181.995 219.355 176.751 221.148 170.813 220.216L170.743 220.204L170.675 220.19C165.682 219.131 162.052 216.064 160.352 211.501Z" fill="#313937"/>
<path d="M212.822 200.35C212.732 198.902 211.485 197.801 210.037 197.892C208.589 197.982 207.489 199.229 207.579 200.677C207.763 203.633 206.604 206.205 203.895 208.194C200.175 210.579 196.688 210.647 194.001 209.264C191.24 207.843 188.772 204.603 187.839 199.318C187.587 197.889 186.224 196.935 184.795 197.188C183.366 197.44 182.413 198.802 182.666 200.231C183.803 206.673 187.006 211.573 191.597 213.935C196.245 216.328 201.765 215.833 206.811 212.566L206.87 212.527L206.926 212.486C211.057 209.488 213.126 205.209 212.822 200.35Z" fill="#313937"/>
<path d="M183.84 192.937C185.259 192.635 186.653 193.541 186.955 194.96L188.484 202.154C188.785 203.573 187.879 204.967 186.46 205.269C185.042 205.57 183.647 204.665 183.346 203.246L181.816 196.052C181.515 194.633 182.421 193.238 183.84 192.937Z" fill="#313937"/>
<path d="M177.028 182.205C178.037 181.991 179.029 182.635 179.243 183.644C179.458 184.653 178.814 185.644 177.805 185.859C175.751 186.295 174.601 187.829 174.196 188.536C173.683 189.431 172.541 189.741 171.646 189.228C170.751 188.715 170.441 187.574 170.954 186.679C171.601 185.55 173.479 182.96 177.028 182.205Z" fill="white"/>
<path fill-rule="evenodd" clip-rule="evenodd" d="M105.924 159.338C111.334 150.776 118.135 143.098 126.09 136.671C122.572 133.135 117.387 131.401 112.145 132.515C103.935 134.26 98.6941 142.33 100.439 150.54C101.21 154.168 103.217 157.216 105.924 159.338Z" fill="#41C3A8"/>
<path fill-rule="evenodd" clip-rule="evenodd" d="M233.342 131.142C224.918 125.52 215.581 121.272 205.699 118.637C207.475 113.975 211.507 110.282 216.749 109.167C224.959 107.422 233.029 112.663 234.775 120.873C235.546 124.501 234.953 128.102 233.342 131.142Z" fill="#41C3A8"/>
<path d="M131.772 204.689C132.762 209.35 127.6 214.396 120.241 215.96C112.882 217.524 106.113 215.014 105.122 210.353C104.132 205.693 109.294 200.646 116.653 199.082C124.012 197.518 130.781 200.028 131.772 204.689Z" fill="#FFBEBF"/>
<path d="M258.806 177.689C259.797 182.35 254.634 187.396 247.275 188.96C239.916 190.524 233.147 188.014 232.157 183.353C231.166 178.693 236.329 173.646 243.688 172.082C251.047 170.518 257.816 173.028 258.806 177.689Z" fill="#FFBEBF"/>
<path d="M364.869 254.192C333.104 254.192 309.32 230.564 309.32 199.269C309.32 167.974 333.104 144.346 364.869 144.346C396.633 144.346 420.417 167.974 420.417 199.269C420.417 230.564 396.633 254.192 364.869 254.192ZM364.869 236.041C384.428 236.041 397.572 221.332 397.572 199.269C397.572 177.206 384.428 162.498 364.869 162.498C345.309 162.498 332.165 177.206 332.165 199.269C332.165 221.332 345.309 236.041 364.869 236.041Z" fill="url(#paint1_linear_2440_3988)"/>
<path d="M477.737 171.73C494.48 171.73 505.12 183.309 505.12 201.303V241.987C505.12 249.185 501.678 252.94 495.106 252.94C488.534 252.94 485.092 249.185 485.092 241.987V204.433C485.092 194.262 479.772 188.472 470.696 188.472C461.62 188.472 456.3 194.418 456.3 204.433V241.987C456.3 249.185 452.858 252.94 446.286 252.94C439.714 252.94 436.271 249.185 436.271 241.987V182.057C436.271 176.111 439.401 172.825 444.878 172.825C450.041 172.825 453.014 175.954 453.484 181.744L453.64 184.248C458.178 176.424 467.097 171.73 477.737 171.73Z" fill="url(#paint2_linear_2440_3988)"/>
<path d="M560.099 171.73C581.85 171.73 596.402 186.125 596.402 207.562V210.222C596.402 216.481 592.959 220.08 586.544 220.08H539.758C542.105 231.972 550.242 238.231 563.385 238.231C568.706 238.231 573.713 237.136 579.346 234.946C581.224 234.163 582.945 233.85 584.823 233.85C589.047 233.85 592.177 236.98 592.177 241.048C592.177 244.334 589.83 247.307 585.448 249.654C580.128 252.627 571.992 254.192 562.76 254.192C536.628 254.192 519.103 237.606 519.103 212.883C519.103 188.942 536.315 171.73 560.099 171.73ZM559.004 187.064C548.677 187.064 541.635 193.949 539.758 205.528H576.686C575.903 194.106 569.332 187.064 559.004 187.064Z" fill="url(#paint3_linear_2440_3988)"/>
<path d="M655.988 171.73C678.364 171.73 693.855 188.472 693.855 212.883C693.855 237.293 678.364 254.192 655.988 254.192C644.096 254.192 634.082 249.341 628.761 241.048L628.449 244.021C627.979 249.967 625.006 253.097 619.842 253.097C614.366 253.097 611.236 249.654 611.236 243.708V153.422C611.236 146.224 614.679 142.469 621.251 142.469C627.823 142.469 631.265 146.224 631.265 153.422V181.588C636.898 175.329 645.661 171.73 655.988 171.73ZM652.233 238.231C664.594 238.231 673.357 227.591 673.357 212.883C673.357 198.174 664.594 187.69 652.233 187.69C639.871 187.69 631.109 198.174 631.109 212.883C631.109 227.591 639.871 238.231 652.233 238.231Z" fill="url(#paint4_linear_2440_3988)"/>
<path d="M743.622 171.73C765.372 171.73 779.924 186.125 779.924 207.562V210.222C779.924 216.481 776.481 220.08 770.066 220.08H723.28C725.627 231.972 733.764 238.231 746.908 238.231C752.228 238.231 757.235 237.136 762.868 234.946C764.746 234.163 766.467 233.85 768.345 233.85C772.569 233.85 775.699 236.98 775.699 241.048C775.699 244.334 773.352 247.307 768.97 249.654C763.65 252.627 755.514 254.192 746.282 254.192C720.15 254.192 702.625 237.606 702.625 212.883C702.625 188.942 719.837 171.73 743.622 171.73ZM742.526 187.064C732.199 187.064 725.157 193.949 723.28 205.528H760.208C759.426 194.106 752.854 187.064 742.526 187.064Z" fill="url(#paint5_linear_2440_3988)"/>
<path d="M826.836 171.73C848.742 171.73 859.539 181.9 859.539 202.555V243.708C859.539 249.654 856.253 253.097 850.933 253.097C845.769 253.097 842.64 249.967 842.17 244.021V243.865C836.85 250.593 828.713 254.192 818.542 254.192C800.861 254.192 789.595 243.708 789.595 227.435C789.595 210.535 801.33 199.895 819.794 199.895C828.244 199.895 835.285 202.086 839.98 206.154V201.46C839.98 191.915 835.129 187.377 824.958 187.377C819.951 187.377 815.1 188.472 809.154 190.976C807.433 191.758 805.555 192.228 803.677 192.228C799.296 192.228 796.167 189.255 796.167 185.186C796.167 181.588 798.514 178.614 803.208 176.424C809.467 173.451 817.76 171.73 826.836 171.73ZM824.489 238.544C833.408 238.544 839.667 233.537 839.667 226.339C839.667 219.142 833.408 214.134 824.489 214.134C815.569 214.134 809.31 219.142 809.31 226.339C809.31 233.537 815.569 238.544 824.489 238.544Z" fill="url(#paint6_linear_2440_3988)"/>
<path d="M915.716 172.043C922.288 172.043 925.887 175.329 925.887 181.275C925.887 187.847 922.131 191.132 913.525 191.915C903.354 192.854 899.443 198.487 899.443 212.57V241.987C899.443 249.185 896 252.94 889.428 252.94C882.856 252.94 879.414 249.185 879.414 241.987V181.588C879.414 176.111 882.387 172.825 887.707 172.825C892.558 172.825 895.687 175.798 896.157 181.275L896.626 187.69C900.538 177.676 907.11 172.043 915.716 172.043Z" fill="url(#paint7_linear_2440_3988)"/>
<defs>
<linearGradient id="paint0_linear_2440_3988" x1="271.852" y1="280.287" x2="94.1425" y2="124.017" gradientUnits="userSpaceOnUse">
<stop stop-color="#35B0A6"/>
<stop offset="1" stop-color="#4CD6AA"/>
</linearGradient>
<linearGradient id="paint1_linear_2440_3988" x1="304" y1="201.002" x2="927" y2="201.002" gradientUnits="userSpaceOnUse">
<stop stop-color="#5CC3B4"/>
<stop offset="1" stop-color="#15A591"/>
</linearGradient>
<linearGradient id="paint2_linear_2440_3988" x1="304" y1="201.002" x2="927" y2="201.002" gradientUnits="userSpaceOnUse">
<stop stop-color="#5CC3B4"/>
<stop offset="1" stop-color="#15A591"/>
</linearGradient>
<linearGradient id="paint3_linear_2440_3988" x1="304" y1="201.002" x2="927" y2="201.002" gradientUnits="userSpaceOnUse">
<stop stop-color="#5CC3B4"/>
<stop offset="1" stop-color="#15A591"/>
</linearGradient>
<linearGradient id="paint4_linear_2440_3988" x1="304" y1="201.002" x2="927" y2="201.002" gradientUnits="userSpaceOnUse">
<stop stop-color="#5CC3B4"/>
<stop offset="1" stop-color="#15A591"/>
</linearGradient>
<linearGradient id="paint5_linear_2440_3988" x1="304" y1="201.002" x2="927" y2="201.002" gradientUnits="userSpaceOnUse">
<stop stop-color="#5CC3B4"/>
<stop offset="1" stop-color="#15A591"/>
</linearGradient>
<linearGradient id="paint6_linear_2440_3988" x1="304" y1="201.002" x2="927" y2="201.002" gradientUnits="userSpaceOnUse">
<stop stop-color="#5CC3B4"/>
<stop offset="1" stop-color="#15A591"/>
</linearGradient>
<linearGradient id="paint7_linear_2440_3988" x1="304" y1="201.002" x2="927" y2="201.002" gradientUnits="userSpaceOnUse">
<stop stop-color="#5CC3B4"/>
<stop offset="1" stop-color="#15A591"/>
</linearGradient>
</defs>
</svg>
