<svg width="400" height="400" viewBox="0 0 400 400" fill="none" xmlns="http://www.w3.org/2000/svg">
<g clip-path="url(#clip0_2440_3950)">
<rect width="400" height="400" fill="url(#paint0_linear_2440_3950)"/>
<path fill-rule="evenodd" clip-rule="evenodd" d="M351.739 443.099C354.517 444.74 359.119 447.829 358.609 452.889L358.467 453.875L358.438 454.069C357.139 461.059 350.047 467.145 342.514 468.653L342.29 468.682C271.479 482.739 218.895 482.595 168.855 477.189C145.864 474.706 124.658 468.092 106.034 456.203C92.4956 447.565 80.5025 436.648 70.2657 422.789C55.9342 403.386 45.1944 378.381 38.3373 346.099C29.2115 303.121 34.2781 259.415 52.5042 221.369L54.2796 217.766C54.509 217.324 54.5805 216.69 54.2488 215.879C53.9087 215.051 53.2315 214.313 52.4038 213.926C46.6516 211.173 41.5203 207.238 37.3164 202.261C35.0644 199.608 33.1499 196.732 31.5879 193.707C27.8688 186.49 26.1596 178.338 26.6425 169.89L26.8326 167.674C28.0847 155.874 33.5934 145.063 42.4554 136.859L44.1427 135.356C49.1729 131.117 54.8855 127.971 60.9568 126.006C66.3391 124.262 72.0087 123.45 77.7529 123.673L79.0679 123.75L81.1676 123.923L81.3092 123.949C86.7414 124.557 91.9235 126.063 96.6802 128.39C101.931 130.969 106.657 134.54 110.625 139.004L111.352 139.844L112.27 140.962C113.168 142.102 114.013 143.273 114.802 144.493C115.861 146.125 117.704 146.389 118.555 146.002L118.905 145.796C137.654 133.484 159.327 123.832 183.751 117.572C209.96 110.838 235.293 109.073 259.117 111.549L259.504 111.56C260.382 111.524 261.831 110.578 262.093 108.722C262.259 107.58 262.468 106.448 262.718 105.307L262.99 104.161L263.303 102.988C270.113 78.51 295.999 64.1931 321.317 70.4769C347.042 76.8431 363.296 102.27 356.995 127.466C356.783 128.298 356.553 129.135 356.297 129.958C356.031 130.803 355.743 131.633 355.428 132.469C354.12 135.973 352.404 139.282 350.301 142.317C349.799 143.042 349.575 143.953 349.674 144.794C349.711 145.143 349.798 145.443 349.923 145.679C350.077 145.984 350.292 146.22 350.539 146.411L351.255 146.934L353.618 148.701C385.693 173.054 409.635 207.537 421.933 247.683L422.694 250.204C438.406 303.147 434.331 343.135 416.101 376.661C401.687 403.168 378.264 423.338 349.035 438.779C348.799 438.904 348.601 439.077 348.447 439.279C348.204 439.593 348.074 439.996 348.084 440.462C348.095 441.173 348.417 441.61 348.935 441.838L350.428 442.421L350.725 442.564L351.459 442.952L351.612 443.032L351.739 443.099Z" fill="white"/>
<path d="M117.221 299.346C119.513 310.128 108.517 321.601 92.6602 324.971C76.8039 328.342 62.092 322.333 59.8002 311.551C57.5083 300.769 68.5045 289.296 84.3607 285.925C100.217 282.555 114.929 288.563 117.221 299.346Z" fill="#FFBEBF"/>
<path d="M392.839 240.76C395.131 251.542 384.135 263.015 368.279 266.385C352.423 269.756 337.711 263.747 335.419 252.965C333.127 242.183 344.123 230.71 359.979 227.339C375.836 223.969 390.548 229.978 392.839 240.76Z" fill="#FFBEBF"/>
<path fill-rule="evenodd" clip-rule="evenodd" d="M61.3077 202.575C72.8978 184.229 87.4711 167.778 104.517 154.007C96.979 146.429 85.8687 142.714 74.6362 145.101C57.045 148.84 45.8156 166.132 49.5547 183.723C51.207 191.497 55.5059 198.028 61.3077 202.575Z" fill="#41C3A8"/>
<path fill-rule="evenodd" clip-rule="evenodd" d="M336.304 140.802C318.254 128.756 298.25 119.655 277.076 114.007C280.88 104.019 289.519 96.1058 300.751 93.7183C318.343 89.9791 335.635 101.209 339.374 118.8C341.026 126.574 339.755 134.289 336.304 140.802Z" fill="#41C3A8"/>
<path d="M168.622 246.683C168.963 263.123 156.435 276.716 140.64 277.044C124.845 277.372 111.763 264.311 111.422 247.872C111.08 231.432 123.608 217.839 139.403 217.511C155.199 217.183 168.28 230.244 168.622 246.683Z" fill="#313937"/>
<path d="M155.789 232.327C157.406 239.938 152.548 247.419 144.937 249.037C137.326 250.655 129.845 245.796 128.227 238.185C126.609 230.574 131.467 223.093 139.079 221.475C146.69 219.857 154.171 224.716 155.789 232.327Z" fill="white"/>
<path d="M156.81 259.716C157.753 264.156 154.405 268.63 149.331 269.708C144.257 270.787 139.379 268.062 138.435 263.622C137.491 259.182 140.84 254.709 145.914 253.63C150.988 252.552 155.866 255.277 156.81 259.716Z" fill="white"/>
<path d="M266.501 225.886C272.876 241.043 289.849 248.365 304.413 242.24C318.976 236.115 325.614 218.863 319.24 203.706C312.865 188.549 295.892 181.227 281.328 187.351C266.765 193.476 260.127 210.728 266.501 225.886Z" fill="#313937"/>
<path d="M270.63 207.912C272.248 215.523 280.244 220.272 288.489 218.519C296.734 216.767 302.107 209.176 300.489 201.565C298.871 193.954 290.876 189.205 282.63 190.958C274.385 192.71 269.013 200.301 270.63 207.912Z" fill="white"/>
<path d="M283.135 232.86C284.078 237.3 288.957 240.025 294.031 238.946C299.105 237.868 302.453 233.394 301.509 228.955C300.566 224.515 295.687 221.79 290.613 222.869C285.539 223.947 282.191 228.42 283.135 232.86Z" fill="white"/>
<path fill-rule="evenodd" clip-rule="evenodd" d="M190.81 264.568C188.508 253.737 198.483 244.859 217.474 240.822C236.772 236.72 249.67 240.736 251.972 251.568C255.065 266.119 243.891 280.869 227.048 284.448C210.159 288.038 193.903 279.119 190.81 264.568Z" fill="#313937"/>
<path d="M178.102 309.07C177.082 306.333 178.476 303.287 181.213 302.268C183.951 301.248 186.997 302.64 188.017 305.377C190.1 310.971 194.346 314.753 200.97 316.19C209.755 317.523 216.218 314.793 220.026 310.051C223.94 305.177 225.827 297.196 223.215 286.708C222.509 283.874 224.235 281.005 227.07 280.299C229.905 279.593 232.775 281.317 233.481 284.152C236.664 296.935 234.782 308.571 228.274 316.676C221.682 324.885 211.122 328.494 199.164 326.617L199.026 326.596L198.888 326.567C188.835 324.436 181.524 318.258 178.102 309.07Z" fill="#313937"/>
<path d="M283.752 286.611C283.57 283.695 281.059 281.48 278.143 281.662C275.228 281.844 273.011 284.354 273.193 287.27C273.565 293.228 271.225 298.409 265.757 302.416C258.274 307.208 251.26 307.342 245.852 304.559C240.294 301.698 235.324 295.175 233.445 284.531C232.936 281.655 230.192 279.736 227.316 280.244C224.439 280.752 222.518 283.495 223.026 286.371C225.317 299.345 231.769 309.209 241.012 313.966C250.373 318.784 261.487 317.786 271.648 311.207L271.766 311.132L271.88 311.05C280.197 305.013 284.363 296.396 283.752 286.611Z" fill="#313937"/>
<path d="M224.401 292.579L221.322 278.092C220.715 275.234 222.539 272.426 225.396 271.818C228.253 271.211 231.062 273.035 231.669 275.892L234.749 290.379C235.356 293.237 233.532 296.045 230.675 296.653C227.817 297.26 225.009 295.436 224.401 292.579Z" fill="#313937"/>
<path d="M211.681 250.208C213.714 249.776 215.712 251.074 216.144 253.106C216.576 255.138 215.277 257.137 213.245 257.569C209.109 258.448 206.793 261.535 205.976 262.96C204.943 264.762 202.644 265.385 200.842 264.352C199.04 263.318 198.417 261.02 199.45 259.218C200.753 256.944 204.535 251.727 211.681 250.208Z" fill="white"/>
</g>
<defs>
<linearGradient id="paint0_linear_2440_3950" x1="400" y1="400" x2="-1.19209e-05" y2="1.19209e-05" gradientUnits="userSpaceOnUse">
<stop stop-color="#35B0A6"/>
<stop offset="1" stop-color="#4CD6AA"/>
</linearGradient>
<clipPath id="clip0_2440_3950">
<rect width="400" height="400" fill="white"/>
</clipPath>
</defs>
</svg>
