<svg width="400" height="400" viewBox="0 0 400 400" fill="none" xmlns="http://www.w3.org/2000/svg">
<rect width="400" height="400" fill="url(#paint0_linear_2440_3931)"/>
<path fill-rule="evenodd" clip-rule="evenodd" d="M280.215 306.265C282.043 307.346 285.073 309.379 284.737 312.71L284.644 313.36L284.625 313.487C283.769 318.089 279.101 322.095 274.142 323.087L273.995 323.106C227.38 332.36 192.765 332.265 159.824 328.707C144.689 327.072 130.729 322.718 118.47 314.892C109.557 309.206 101.662 302.019 94.9237 292.896C85.4894 280.123 78.4195 263.662 73.9055 242.411C67.8981 214.119 71.2334 185.348 83.2315 160.303L84.4002 157.931C84.5512 157.64 84.5983 157.223 84.3799 156.689C84.156 156.144 83.7102 155.658 83.1653 155.404C79.3788 153.591 76.0008 151 73.2335 147.724C71.751 145.978 70.4907 144.085 69.4625 142.094C67.0142 137.342 65.8891 131.976 66.207 126.415L66.3321 124.956C67.1564 117.188 70.7827 110.071 76.6164 104.671L77.7272 103.682C81.0385 100.891 84.799 98.8203 88.7957 97.5263C92.3388 96.3781 96.0711 95.8441 99.8524 95.991L100.718 96.0415L102.1 96.1552L102.193 96.1724C105.769 96.5728 109.181 97.5638 112.312 99.0958C115.769 100.793 118.88 103.144 121.492 106.083L121.97 106.636L122.574 107.372C123.166 108.122 123.722 108.893 124.241 109.696C124.939 110.77 126.152 110.945 126.712 110.69L126.942 110.554C139.285 102.449 153.552 96.0956 169.63 91.9744C186.883 87.5417 203.559 86.3798 219.242 88.0094L219.497 88.017C220.075 87.9928 221.029 87.3702 221.202 86.1484C221.311 85.3968 221.449 84.6515 221.613 83.9005L221.792 83.1463L221.998 82.374C226.481 66.2603 243.521 56.8357 260.188 60.9723C277.123 65.1631 287.823 81.9016 283.675 98.4873C283.535 99.0355 283.384 99.5862 283.215 100.128C283.04 100.684 282.851 101.23 282.643 101.781C281.782 104.087 280.652 106.266 279.268 108.264C278.938 108.741 278.79 109.341 278.856 109.895C278.88 110.124 278.937 110.322 279.02 110.477C279.121 110.678 279.262 110.833 279.425 110.959L279.896 111.303L281.452 112.466C302.567 128.497 318.327 151.197 326.423 177.626L326.924 179.285C337.267 214.136 334.584 240.46 322.584 262.53C313.095 279.98 297.676 293.257 278.434 303.422C278.279 303.504 278.149 303.618 278.048 303.751C277.888 303.957 277.802 304.223 277.809 304.53C277.816 304.998 278.028 305.286 278.369 305.436L279.351 305.819L279.547 305.913L280.031 306.169L280.131 306.221L280.215 306.265Z" fill="white"/>
<path d="M125.834 211.635C127.342 218.733 120.104 226.285 109.666 228.504C99.2278 230.723 89.543 226.767 88.0343 219.669C86.5256 212.572 93.7643 205.019 104.202 202.8C114.64 200.582 124.325 204.537 125.834 211.635Z" fill="#FFBEBF"/>
<path d="M307.271 173.069C308.779 180.166 301.541 187.719 291.103 189.938C280.665 192.156 270.98 188.201 269.471 181.103C267.963 174.005 275.201 166.453 285.639 164.234C296.077 162.015 305.762 165.971 307.271 173.069Z" fill="#FFBEBF"/>
<path fill-rule="evenodd" clip-rule="evenodd" d="M89.0266 147.932C96.6563 135.855 106.25 125.025 117.471 115.96C112.509 110.972 105.195 108.526 97.8006 110.098C86.2205 112.559 78.8283 123.942 81.2897 135.522C82.3775 140.64 85.2074 144.939 89.0266 147.932Z" fill="#41C3A8"/>
<path fill-rule="evenodd" clip-rule="evenodd" d="M270.054 107.268C258.172 99.3387 245.003 93.3472 231.065 89.6298C233.569 83.0545 239.256 77.8453 246.65 76.2736C258.23 73.8122 269.613 81.2044 272.075 92.7845C273.162 97.9019 272.326 102.981 270.054 107.268Z" fill="#41C3A8"/>
<path d="M159.671 176.973C159.896 187.795 151.649 196.743 141.251 196.959C130.853 197.175 122.241 188.577 122.016 177.755C121.792 166.933 130.039 157.985 140.436 157.769C150.834 157.553 159.446 166.151 159.671 176.973Z" fill="#313937"/>
<path d="M151.223 167.52C152.288 172.53 149.089 177.455 144.079 178.52C139.069 179.585 134.144 176.387 133.079 171.377C132.014 166.366 135.212 161.441 140.223 160.376C145.233 159.311 150.158 162.51 151.223 167.52Z" fill="white"/>
<path d="M151.895 185.552C152.516 188.475 150.312 191.42 146.972 192.13C143.632 192.84 140.42 191.046 139.799 188.123C139.178 185.201 141.382 182.256 144.722 181.546C148.062 180.836 151.274 182.63 151.895 185.552Z" fill="white"/>
<path d="M224.104 163.279C228.3 173.257 239.473 178.077 249.06 174.045C258.647 170.014 263.017 158.656 258.821 148.679C254.624 138.701 243.451 133.881 233.864 137.913C224.277 141.945 219.907 153.302 224.104 163.279Z" fill="#313937"/>
<path d="M226.822 151.447C227.887 156.457 233.15 159.584 238.578 158.43C244.006 157.276 247.543 152.279 246.478 147.269C245.413 142.259 240.149 139.133 234.722 140.286C229.294 141.44 225.757 146.437 226.822 151.447Z" fill="white"/>
<path d="M235.054 167.873C235.675 170.796 238.886 172.59 242.226 171.88C245.566 171.17 247.771 168.225 247.149 165.302C246.528 162.38 243.317 160.586 239.977 161.296C236.636 162.006 234.432 164.951 235.054 167.873Z" fill="white"/>
<path fill-rule="evenodd" clip-rule="evenodd" d="M174.277 188.744C172.761 181.613 179.328 175.769 191.83 173.112C204.533 170.412 213.024 173.055 214.54 180.185C216.576 189.764 209.219 199.474 198.132 201.83C187.014 204.194 176.313 198.322 174.277 188.744Z" fill="#313937"/>
<path d="M165.912 218.036C165.241 216.234 166.158 214.23 167.96 213.558C169.762 212.887 171.767 213.803 172.439 215.605C173.81 219.288 176.605 221.777 180.966 222.723C186.749 223.601 191.003 221.804 193.51 218.682C196.086 215.473 197.328 210.22 195.609 203.316C195.144 201.45 196.281 199.561 198.147 199.096C200.013 198.632 201.902 199.767 202.367 201.633C204.463 210.048 203.224 217.708 198.939 223.043C194.6 228.447 187.649 230.823 179.777 229.587L179.686 229.573L179.595 229.554C172.977 228.151 168.164 224.084 165.912 218.036Z" fill="#313937"/>
<path d="M235.46 203.251C235.341 201.332 233.687 199.874 231.768 199.994C229.849 200.113 228.389 201.766 228.509 203.685C228.754 207.607 227.213 211.018 223.614 213.656C218.688 216.81 214.071 216.899 210.511 215.067C206.852 213.183 203.581 208.889 202.343 201.882C202.009 199.989 200.202 198.726 198.309 199.06C196.415 199.395 195.151 201.2 195.485 203.094C196.993 211.634 201.24 218.127 207.325 221.259C213.487 224.43 220.803 223.774 227.492 219.443L227.57 219.394L227.645 219.339C233.12 215.365 235.863 209.693 235.46 203.251Z" fill="#313937"/>
<path d="M196.39 207.185L194.363 197.648C193.963 195.767 195.164 193.918 197.045 193.518C198.926 193.118 200.775 194.319 201.174 196.2L203.201 205.737C203.601 207.618 202.4 209.467 200.519 209.866C198.638 210.266 196.79 209.066 196.39 207.185Z" fill="#313937"/>
<path d="M188.016 179.289C189.354 179.005 190.67 179.859 190.954 181.197C191.238 182.535 190.384 183.85 189.046 184.135C186.323 184.713 184.798 186.746 184.261 187.683C183.581 188.87 182.067 189.28 180.881 188.6C179.695 187.92 179.285 186.406 179.965 185.22C180.823 183.723 183.312 180.289 188.016 179.289Z" fill="white"/>
<defs>
<linearGradient id="paint0_linear_2440_3931" x1="400" y1="400" x2="-1.19209e-05" y2="1.19209e-05" gradientUnits="userSpaceOnUse">
<stop stop-color="#35B0A6"/>
<stop offset="1" stop-color="#4CD6AA"/>
</linearGradient>
</defs>
</svg>
