<svg width="400" height="400" viewBox="0 0 400 400" fill="none" xmlns="http://www.w3.org/2000/svg">
<path fill-rule="evenodd" clip-rule="evenodd" d="M272.835 293.782C274.49 294.76 276.328 296.795 276.024 299.81L275.94 300.398L275.922 300.513C275.148 304.679 271.826 308.112 267.337 309.011L267.204 309.028C225.004 317.405 193.362 321.359 163.846 314.098C150.144 312.618 137.507 308.676 126.408 301.591C118.34 296.444 111.193 289.938 105.092 281.678C96.5513 270.115 90.1509 255.214 86.0645 235.975C80.626 210.363 83.6455 184.316 94.5072 161.644L95.5652 159.496C95.7019 159.232 95.7446 158.855 95.5468 158.371C95.3442 157.878 94.9406 157.438 94.4473 157.208C91.0194 155.567 87.9614 153.222 85.4561 150.256C84.114 148.675 82.9731 146.961 82.0422 145.158C79.8258 140.857 78.8073 135.999 79.0951 130.965L79.2083 129.644C79.9545 122.612 83.2374 116.169 88.5186 111.28L89.5242 110.384C92.5219 107.858 95.9263 105.984 99.5445 104.812C102.752 103.773 106.131 103.289 109.554 103.422L110.338 103.468L111.589 103.571L111.673 103.586C114.911 103.949 117.999 104.846 120.834 106.233C123.963 107.77 126.779 109.898 129.144 112.558L129.577 113.059L130.124 113.725C130.66 114.405 131.163 115.102 131.633 115.83C132.265 116.802 133.363 116.96 133.87 116.729L134.078 116.606C145.252 109.269 158.168 103.517 172.723 99.786C188.342 95.7731 203.439 94.7213 217.637 96.1965L217.867 96.2034C218.391 96.1815 219.255 95.6179 219.411 94.5118C219.509 93.8314 219.634 93.1566 219.783 92.4767L219.945 91.794L220.132 91.0949C224.19 76.5073 239.616 67.9752 254.705 71.72C270.035 75.5139 279.722 90.6671 275.967 105.682C275.841 106.178 275.703 106.677 275.551 107.168C275.392 107.671 275.221 108.165 275.033 108.664C274.253 110.752 273.231 112.724 271.978 114.533C271.678 114.965 271.545 115.507 271.604 116.009C271.626 116.217 271.678 116.396 271.753 116.536C271.844 116.718 271.972 116.859 272.119 116.973L272.546 117.284L273.954 118.337C293.069 132.85 307.337 153.4 314.666 177.325L315.12 178.827C324.483 210.378 322.055 234.209 311.191 254.189C302.6 269.986 288.642 282.006 271.223 291.207C271.082 291.282 270.964 291.385 270.873 291.505C270.728 291.693 270.65 291.933 270.656 292.211C270.663 292.634 270.855 292.895 271.163 293.031L272.053 293.378L272.23 293.463L272.668 293.694L272.759 293.742L272.835 293.782Z" fill="white"/>
<path d="M208.019 80.5145C216.733 61.7707 238.089 52.0635 258.336 57.0888L258.335 57.0914C281.179 62.7497 296.511 85.6714 290.592 109.34L290.585 109.372L290.576 109.405C290.404 110.081 290.196 110.844 289.945 111.65L289.93 111.698C289.911 111.758 289.889 111.816 289.87 111.875C307.823 127.571 321.26 148.203 328.69 171.654L329.08 172.911L329.09 172.94L329.099 172.969L329.552 174.472L329.562 174.505L329.572 174.539C339.811 209.037 337.614 237.153 324.435 261.391C316.425 276.12 304.759 287.735 291.034 296.936C291.172 298.318 291.179 299.779 291.024 301.321L290.992 301.64L290.946 301.957L290.862 302.545L290.854 302.593L290.848 302.641L290.83 302.757L290.792 303.014L290.744 303.269C288.818 313.631 280.684 321.715 270.295 323.794L269.781 323.897L269.624 323.916C228.076 332.147 193.879 336.749 161.227 328.972C146.015 327.205 131.411 322.67 118.3 314.301C108.727 308.194 100.202 300.432 92.966 290.636C82.853 276.944 75.7372 259.91 71.3186 239.109L71.3174 239.107C65.8617 213.414 67.9595 187.173 77.2705 163.495C76.1095 162.403 75.0046 161.241 73.9632 160.01L73.9619 160.011C71.8713 157.548 70.0954 154.881 68.6474 152.076L68.641 152.065C65.1517 145.293 63.6073 137.742 64.0439 130.105L64.0566 129.891L64.0744 129.677L64.1876 128.357L64.2016 128.205L64.2169 128.054C65.3591 117.289 70.3975 107.514 78.2779 100.218L78.3835 100.119L78.4929 100.022L79.6517 98.9895L79.8094 98.8572C84.3023 95.0712 89.43 92.242 94.9008 90.4707C99.4572 88.9945 104.266 88.2521 109.159 88.3324L110.14 88.3591L110.286 88.3642L110.434 88.3731L111.217 88.4189L111.395 88.4291L111.573 88.4443L113.583 88.6097L113.977 88.6822C118.372 89.2381 122.633 90.4493 126.626 92.296L127.46 92.6929L127.469 92.6967L127.479 92.7018C130.439 94.1553 133.218 95.9525 135.769 98.0634C145.869 92.6128 156.964 88.2642 168.972 85.1854L170.592 84.7784C183.352 81.6444 195.889 80.2721 208.019 80.5145ZM254.705 71.721C239.617 67.9762 224.19 76.508 220.132 91.0952L219.945 91.7949L219.784 92.4779C219.635 93.1578 219.509 93.8329 219.411 94.5132C219.255 95.6187 218.391 96.1816 217.868 96.2037L217.636 96.1974C203.439 94.7222 188.342 95.7743 172.724 99.787C158.168 103.518 145.252 109.27 134.078 116.607L133.869 116.729C133.362 116.96 132.265 116.802 131.633 115.83C131.163 115.103 130.66 114.405 130.125 113.726L129.578 113.059L129.144 112.559C126.779 109.899 123.963 107.77 120.834 106.234C117.999 104.847 114.911 103.95 111.674 103.588L111.589 103.571L110.338 103.468L109.555 103.422C106.132 103.29 102.752 103.773 99.545 104.813C95.9268 105.984 92.5216 107.86 89.5239 110.386L88.519 111.281C83.2378 116.17 79.9552 122.613 79.209 129.645L79.0945 130.966C78.8068 136 79.8257 140.858 82.0418 145.159C82.9727 146.962 84.114 148.676 85.456 150.257C87.9612 153.223 91.0201 155.568 94.4479 157.209C94.9408 157.439 95.3443 157.879 95.547 158.372C95.7447 158.855 95.7015 159.234 95.5648 159.497L94.5077 161.645C83.6461 184.317 80.6257 210.363 86.064 235.976C90.1504 255.214 96.5515 270.116 105.092 281.68C111.193 289.939 118.341 296.445 126.409 301.592C137.507 308.677 150.145 312.618 163.846 314.099C193.362 321.36 225.004 317.406 267.204 309.028L267.337 309.012C271.826 308.113 275.148 304.68 275.922 300.515L275.94 300.399L276.024 299.811C276.327 296.796 274.49 294.761 272.835 293.783L272.76 293.742L272.668 293.695L272.231 293.464L272.053 293.378L271.163 293.031C270.855 292.896 270.663 292.635 270.657 292.212C270.651 291.934 270.728 291.693 270.872 291.506C270.964 291.386 271.083 291.283 271.223 291.208C288.642 282.007 302.6 269.986 311.19 254.19C322.055 234.21 324.483 210.379 315.12 178.828L314.667 177.326C307.338 153.401 293.069 132.851 273.954 118.338L272.546 117.285L272.119 116.973C271.972 116.859 271.844 116.719 271.752 116.537C271.678 116.397 271.627 116.218 271.605 116.01C271.546 115.509 271.678 114.966 271.978 114.534C273.23 112.725 274.253 110.753 275.033 108.665C275.22 108.166 275.392 107.672 275.551 107.169C275.703 106.678 275.84 106.179 275.967 105.683C279.721 90.668 270.035 75.5149 254.705 71.721Z" fill="url(#paint0_linear_2440_3969)"/>
<path d="M164.425 176.593C164.641 187.018 156.697 195.638 146.68 195.846C136.664 196.054 128.368 187.772 128.152 177.347C127.935 166.922 135.88 158.302 145.896 158.094C155.913 157.886 164.208 166.168 164.425 176.593Z" fill="#313937"/>
<path d="M156.288 167.489C157.313 172.315 154.233 177.06 149.406 178.085C144.58 179.111 139.835 176.03 138.809 171.204C137.783 166.377 140.864 161.633 145.691 160.607C150.517 159.581 155.262 162.662 156.288 167.489Z" fill="white"/>
<path d="M156.935 184.857C157.534 187.672 155.41 190.509 152.193 191.193C148.975 191.877 145.882 190.149 145.283 187.333C144.685 184.518 146.808 181.681 150.026 180.997C153.243 180.313 156.337 182.041 156.935 184.857Z" fill="white"/>
<path d="M226.496 163.402C230.538 173.014 241.302 177.657 250.537 173.773C259.772 169.889 263.982 158.949 259.939 149.337C255.897 139.725 245.133 135.082 235.898 138.966C226.663 142.85 222.453 153.79 226.496 163.402Z" fill="#313937"/>
<path d="M229.114 152.009C230.14 156.836 235.21 159.848 240.439 158.736C245.668 157.625 249.075 152.811 248.049 147.985C247.023 143.158 241.952 140.147 236.724 141.258C231.495 142.369 228.088 147.183 229.114 152.009Z" fill="white"/>
<path d="M237.044 167.829C237.642 170.645 240.736 172.373 243.953 171.689C247.171 171.005 249.294 168.168 248.696 165.353C248.098 162.537 245.004 160.809 241.786 161.493C238.569 162.177 236.445 165.014 237.044 167.829Z" fill="white"/>
<path fill-rule="evenodd" clip-rule="evenodd" d="M178.496 187.933C177.036 181.064 183.362 175.434 195.405 172.875C207.643 170.273 215.822 172.82 217.282 179.689C219.243 188.916 212.157 198.27 201.476 200.54C190.766 202.816 180.457 197.16 178.496 187.933Z" fill="#313937"/>
<path d="M170.438 216.242C169.792 214.506 170.675 212.575 172.411 211.929C174.147 211.282 176.078 212.165 176.725 213.901C178.044 217.445 180.733 219.844 184.926 220.757C190.504 221.607 194.607 219.875 197.024 216.866C199.506 213.774 200.702 208.714 199.046 202.063C198.598 200.265 199.693 198.445 201.49 197.997C203.288 197.55 205.107 198.644 205.555 200.441C207.574 208.548 206.382 215.926 202.254 221.066C198.074 226.272 191.378 228.561 183.795 227.371L183.707 227.356L183.62 227.338C177.244 225.986 172.608 222.069 170.438 216.242Z" fill="#313937"/>
<path d="M237.435 202.003C237.32 200.154 235.727 198.749 233.878 198.864C232.03 198.98 230.624 200.572 230.74 202.421C230.975 206.195 229.495 209.48 226.036 212.02C221.286 215.065 216.833 215.152 213.401 213.385C209.876 211.571 206.725 207.434 205.533 200.685C205.211 198.861 203.471 197.643 201.646 197.965C199.822 198.287 198.605 200.027 198.927 201.851C200.38 210.078 204.47 216.334 210.332 219.35C216.267 222.406 223.316 221.774 229.759 217.602L229.834 217.552L229.906 217.5C235.18 213.672 237.822 208.208 237.435 202.003Z" fill="#313937"/>
<path d="M200.428 192.535C202.24 192.15 204.021 193.306 204.406 195.118L206.359 204.305C206.744 206.117 205.587 207.897 203.775 208.283C201.963 208.668 200.183 207.511 199.798 205.699L197.845 196.513C197.46 194.701 198.616 192.92 200.428 192.535Z" fill="#313937"/>
<path d="M191.732 178.83C193.02 178.556 194.286 179.378 194.56 180.667C194.834 181.956 194.012 183.222 192.723 183.496C190.1 184.053 188.632 186.012 188.114 186.915C187.459 188.058 186.002 188.453 184.859 187.798C183.716 187.143 183.319 185.686 183.974 184.543C184.8 183.101 187.199 179.793 191.732 178.83Z" fill="white"/>
<path fill-rule="evenodd" clip-rule="evenodd" d="M100.941 149.636C107.848 138.703 116.533 128.899 126.691 120.692C122.199 116.176 115.578 113.962 108.884 115.385C98.4006 117.613 91.7085 127.918 93.9368 138.402C94.9215 143.034 97.4834 146.927 100.941 149.636Z" fill="#41C3A8"/>
<path fill-rule="evenodd" clip-rule="evenodd" d="M263.636 113.636C252.88 106.457 240.958 101.033 228.34 97.6677C230.607 91.7151 235.755 86.9993 242.449 85.5765C252.932 83.3482 263.237 90.0403 265.466 100.524C266.45 105.156 265.693 109.754 263.636 113.636Z" fill="#41C3A8"/>
<path d="M133.946 207.546C135.211 213.497 128.619 219.941 119.222 221.939C109.825 223.936 101.182 220.731 99.9167 214.779C98.6517 208.828 105.244 202.384 114.641 200.387C124.038 198.389 132.681 201.595 133.946 207.546Z" fill="#FFBEBF"/>
<path d="M296.152 173.07C297.417 179.021 290.825 185.465 281.428 187.462C272.031 189.459 263.388 186.254 262.123 180.303C260.858 174.351 267.45 167.908 276.847 165.91C286.244 163.913 294.887 167.118 296.152 173.07Z" fill="#FFBEBF"/>
<defs>
<linearGradient id="paint0_linear_2440_3969" x1="312.808" y1="304.072" x2="85.8966" y2="104.536" gradientUnits="userSpaceOnUse">
<stop stop-color="#35B0A6"/>
<stop offset="1" stop-color="#4CD6AA"/>
</linearGradient>
</defs>
</svg>
