<svg width="400" height="400" viewBox="0 0 400 400" fill="none" xmlns="http://www.w3.org/2000/svg">
<g clip-path="url(#clip0_5538_122965)">
<rect width="400" height="400" rx="80" fill="url(#paint0_linear_5538_122965)"/>
<path fill-rule="evenodd" clip-rule="evenodd" d="M374.509 424.835C377.367 426.524 382.1 429.702 381.576 434.906L381.43 435.921L381.4 436.121C380.064 443.312 372.769 449.572 365.019 451.123L364.789 451.153C291.946 465.613 237.852 465.465 186.377 459.904C162.725 457.35 140.911 450.546 121.753 438.315C107.825 429.43 95.4881 418.2 84.9575 403.943C70.2147 383.983 59.1666 358.26 52.1127 325.051C42.725 280.84 47.9371 235.879 66.6862 196.742L68.5126 193.036C68.7486 192.581 68.8222 191.928 68.4809 191.094C68.131 190.242 67.4344 189.484 66.5829 189.086C60.6657 186.253 55.3871 182.205 51.0625 177.085C48.7459 174.356 46.7764 171.398 45.1696 168.286C41.3438 160.862 39.5856 152.476 40.0823 143.785L40.2779 141.506C41.5659 129.367 47.2327 118.246 56.349 109.806L58.0848 108.261C63.2593 103.9 69.1359 100.664 75.3814 98.6418C80.9182 96.8476 86.7505 96.013 92.6595 96.2426L94.0124 96.3216L96.1723 96.4991L96.3179 96.5261C101.906 97.1518 107.237 98.7004 112.13 101.094C117.532 103.747 122.393 107.421 126.475 112.013L127.223 112.877L128.167 114.027C129.092 115.2 129.96 116.405 130.772 117.66C131.862 119.338 133.757 119.61 134.633 119.212L134.993 119.001C154.28 106.335 176.575 96.4061 201.7 89.9659C228.661 83.039 254.721 81.2234 279.229 83.7698L279.627 83.7817C280.53 83.744 282.021 82.7711 282.291 80.8617C282.461 79.6873 282.676 78.5225 282.933 77.3489L283.213 76.1704L283.535 74.9636C290.54 49.7829 317.169 35.0551 343.214 41.5193C369.677 48.0682 386.398 74.2252 379.916 100.144C379.698 101 379.461 101.861 379.198 102.708C378.924 103.576 378.628 104.43 378.304 105.29C376.958 108.895 375.193 112.299 373.03 115.421C372.513 116.167 372.283 117.104 372.385 117.97C372.423 118.328 372.513 118.637 372.641 118.88C372.8 119.193 373.02 119.436 373.274 119.633L374.011 120.171L376.442 121.988C409.438 147.04 434.067 182.513 446.718 223.812L447.501 226.404C463.664 280.867 459.472 322.003 440.718 356.491C425.89 383.759 401.795 404.508 371.727 420.391C371.484 420.52 371.281 420.698 371.122 420.906C370.873 421.229 370.739 421.643 370.749 422.123C370.76 422.854 371.092 423.304 371.624 423.539L373.16 424.138L373.466 424.285L374.222 424.684L374.379 424.767L374.509 424.835Z" fill="white"/>
<path d="M133.259 276.957C135.617 288.049 124.305 299.851 107.994 303.318C91.6825 306.785 76.5483 300.604 74.1907 289.512C71.833 278.421 83.1448 266.618 99.4561 263.151C115.767 259.684 130.902 265.865 133.259 276.957Z" fill="#FFBEBF"/>
<path d="M416.79 216.688C419.147 227.78 407.835 239.582 391.524 243.049C375.213 246.516 360.079 240.335 357.721 229.243C355.363 218.152 366.675 206.349 382.986 202.882C399.298 199.415 414.432 205.596 416.79 216.688Z" fill="#FFBEBF"/>
<path fill-rule="evenodd" clip-rule="evenodd" d="M75.7433 177.409C87.666 158.537 102.658 141.613 120.193 127.447C112.438 119.652 101.009 115.83 89.4543 118.286C71.3582 122.133 59.8065 139.921 63.6529 158.017C65.3527 166.014 69.775 172.732 75.7433 177.409Z" fill="#41C3A8"/>
<path fill-rule="evenodd" clip-rule="evenodd" d="M358.631 113.864C340.063 101.473 319.484 92.11 297.703 86.3008C301.617 76.0256 310.503 67.8854 322.058 65.4293C340.154 61.5829 357.942 73.1345 361.789 91.2307C363.488 99.2275 362.181 107.164 358.631 113.864Z" fill="#41C3A8"/>
<path d="M186.134 222.788C186.485 239.699 173.598 253.682 157.349 254.02C141.101 254.357 127.644 240.922 127.292 224.01C126.941 207.099 139.828 193.116 156.077 192.778C172.326 192.441 185.783 205.877 186.134 222.788Z" fill="#313937"/>
<path d="M172.935 208.016C174.6 215.845 169.602 223.541 161.772 225.205C153.943 226.87 146.247 221.872 144.582 214.042C142.918 206.213 147.916 198.517 155.746 196.852C163.575 195.188 171.271 200.186 172.935 208.016Z" fill="white"/>
<path d="M173.984 236.195C174.955 240.762 171.51 245.364 166.29 246.473C161.071 247.583 156.053 244.78 155.082 240.212C154.111 235.645 157.555 231.043 162.775 229.934C167.995 228.824 173.013 231.627 173.984 236.195Z" fill="white"/>
<path d="M286.824 201.391C293.382 216.983 310.842 224.515 325.824 218.215C340.805 211.914 347.634 194.167 341.076 178.575C334.519 162.983 317.058 155.45 302.077 161.751C287.096 168.051 280.267 185.799 286.824 201.391Z" fill="#313937"/>
<path d="M291.071 182.902C292.735 190.731 300.96 195.616 309.442 193.814C317.924 192.011 323.451 184.202 321.787 176.373C320.123 168.543 311.898 163.658 303.416 165.461C294.934 167.264 289.407 175.072 291.071 182.902Z" fill="white"/>
<path d="M303.936 208.568C304.907 213.135 309.925 215.939 315.145 214.829C320.365 213.72 323.809 209.118 322.838 204.551C321.867 199.983 316.849 197.18 311.629 198.29C306.41 199.399 302.965 204.001 303.936 208.568Z" fill="white"/>
<path fill-rule="evenodd" clip-rule="evenodd" d="M208.961 241.185C206.593 230.042 216.854 220.91 236.39 216.757C256.242 212.537 269.51 216.669 271.879 227.811C275.06 242.779 263.565 257.953 246.239 261.635C228.865 265.328 212.143 256.153 208.961 241.185Z" fill="#313937"/>
<path d="M195.888 286.962C194.84 284.146 196.273 281.013 199.089 279.964C201.905 278.916 205.039 280.347 206.088 283.163C208.231 288.918 212.598 292.808 219.413 294.286C228.45 295.658 235.098 292.849 239.015 287.971C243.042 282.957 244.983 274.747 242.296 263.958C241.57 261.042 243.346 258.091 246.262 257.365C249.178 256.639 252.13 258.413 252.856 261.329C256.132 274.479 254.196 286.448 247.5 294.786C240.719 303.23 229.857 306.943 217.555 305.012L217.413 304.991L217.271 304.961C206.929 302.768 199.409 296.413 195.888 286.962Z" fill="#313937"/>
<path d="M304.571 263.858C304.384 260.859 301.8 258.58 298.801 258.767C295.802 258.954 293.521 261.537 293.708 264.536C294.091 270.665 291.684 275.995 286.06 280.117C278.361 285.046 271.146 285.185 265.583 282.321C259.865 279.378 254.753 272.668 252.819 261.719C252.296 258.76 249.474 256.786 246.515 257.308C243.555 257.831 241.58 260.653 242.102 263.612C244.459 276.957 251.096 287.104 260.604 291.998C270.233 296.954 281.667 295.928 292.119 289.16L292.24 289.083L292.358 288.998C300.914 282.788 305.2 273.924 304.571 263.858Z" fill="#313937"/>
<path d="M243.517 270.002L240.349 255.1C239.724 252.16 241.601 249.271 244.54 248.646C247.479 248.021 250.369 249.898 250.994 252.837L254.161 267.74C254.786 270.679 252.91 273.568 249.97 274.193C247.031 274.818 244.142 272.942 243.517 270.002Z" fill="#313937"/>
<path d="M230.432 226.411C232.522 225.967 234.578 227.302 235.022 229.393C235.466 231.483 234.131 233.539 232.04 233.983C227.785 234.888 225.403 238.063 224.563 239.529C223.5 241.383 221.135 242.023 219.281 240.961C217.427 239.898 216.786 237.533 217.849 235.679C219.19 233.34 223.08 227.974 230.432 226.411Z" fill="white"/>
</g>
<defs>
<linearGradient id="paint0_linear_5538_122965" x1="400" y1="400" x2="-1.19209e-05" y2="1.19209e-05" gradientUnits="userSpaceOnUse">
<stop stop-color="#35B0A6"/>
<stop offset="1" stop-color="#4CD6AA"/>
</linearGradient>
<clipPath id="clip0_5538_122965">
<rect width="400" height="400" rx="80" fill="white"/>
</clipPath>
</defs>
</svg>
