<svg width="1000" height="400" viewBox="0 0 1000 400" fill="none" xmlns="http://www.w3.org/2000/svg">
<rect width="1000" height="400" fill="url(#paint0_linear_2440_4009)"/>
<path fill-rule="evenodd" clip-rule="evenodd" d="M243.854 274.877C245.19 275.666 247.403 277.152 247.158 279.584L247.09 280.059L247.076 280.152C246.451 283.513 243.041 286.439 239.419 287.164L239.311 287.178C205.263 293.937 179.979 293.868 155.919 291.269C144.864 290.075 134.667 286.894 125.713 281.178C119.203 277.025 113.436 271.776 108.514 265.112C101.623 255.782 96.4592 243.759 93.1621 228.237C88.7742 207.572 91.2104 186.557 99.974 168.263L100.828 166.531C100.938 166.318 100.972 166.013 100.813 165.623C100.649 165.225 100.324 164.871 99.9257 164.685C97.1599 163.361 94.6926 161.468 92.6712 159.076C91.5885 157.8 90.6679 156.417 89.9168 154.963C88.1286 151.492 87.3068 147.573 87.539 143.511L87.6304 142.445C88.2324 136.771 90.8812 131.573 95.1422 127.628L95.9536 126.906C98.3722 124.868 101.119 123.355 104.038 122.41C106.626 121.571 109.352 121.181 112.114 121.289L112.747 121.325L113.756 121.408L113.824 121.421C116.436 121.713 118.928 122.437 121.215 123.556C123.74 124.796 126.012 126.514 127.92 128.66L128.27 129.064L128.711 129.601C129.143 130.15 129.549 130.712 129.928 131.299C130.438 132.084 131.324 132.211 131.733 132.025L131.901 131.926C140.916 126.006 151.337 121.365 163.081 118.355C175.683 115.117 187.864 114.268 199.319 115.459L199.505 115.464C199.927 115.446 200.624 114.992 200.75 114.099C200.83 113.55 200.93 113.006 201.051 112.457L201.181 111.907L201.332 111.342C204.606 99.5727 217.053 92.6887 229.227 95.7102C241.596 98.7712 249.411 110.997 246.382 123.112C246.28 123.512 246.169 123.915 246.046 124.31C245.918 124.716 245.78 125.116 245.628 125.517C244.999 127.202 244.174 128.793 243.163 130.253C242.922 130.602 242.814 131.039 242.862 131.444C242.879 131.612 242.921 131.756 242.981 131.869C243.055 132.016 243.158 132.129 243.277 132.221L243.621 132.473L244.758 133.322C260.181 145.032 271.692 161.612 277.606 180.916L277.972 182.128C285.526 207.584 283.567 226.812 274.801 242.932C267.871 255.677 256.608 265.376 242.554 272.8C242.441 272.86 242.346 272.943 242.271 273.04C242.155 273.191 242.092 273.385 242.097 273.609C242.102 273.951 242.257 274.161 242.506 274.271L243.224 274.551L243.367 274.62L243.72 274.806L243.794 274.845L243.854 274.877Z" fill="white"/>
<path d="M131.092 205.755C132.194 210.939 126.907 216.456 119.282 218.077C111.658 219.697 104.584 216.808 103.482 211.624C102.38 206.439 107.668 200.923 115.292 199.302C122.916 197.682 129.99 200.571 131.092 205.755Z" fill="#FFBEBF"/>
<path d="M263.617 177.587C264.719 182.771 259.431 188.288 251.807 189.909C244.183 191.529 237.109 188.64 236.007 183.456C234.905 178.271 240.192 172.755 247.816 171.134C255.441 169.514 262.515 172.403 263.617 177.587Z" fill="#FFBEBF"/>
<path fill-rule="evenodd" clip-rule="evenodd" d="M104.207 159.23C109.779 150.409 116.787 142.499 124.983 135.877C121.358 132.234 116.016 130.447 110.615 131.595C102.157 133.393 96.7574 141.708 98.5553 150.166C99.3498 153.904 101.417 157.044 104.207 159.23Z" fill="#41C3A8"/>
<path fill-rule="evenodd" clip-rule="evenodd" d="M236.433 129.523C227.754 123.732 218.135 119.355 207.954 116.64C209.784 111.837 213.937 108.032 219.338 106.884C227.796 105.087 236.111 110.486 237.909 118.944C238.703 122.682 238.092 126.392 236.433 129.523Z" fill="#41C3A8"/>
<path d="M155.807 180.436C155.971 188.341 149.947 194.877 142.352 195.035C134.758 195.192 128.468 188.912 128.303 181.008C128.139 173.103 134.163 166.567 141.758 166.41C149.353 166.252 155.643 172.532 155.807 180.436Z" fill="#313937"/>
<path d="M149.637 173.531C150.414 177.191 148.078 180.788 144.419 181.566C140.759 182.344 137.162 180.008 136.384 176.348C135.606 172.689 137.942 169.091 141.602 168.313C145.261 167.536 148.859 169.872 149.637 173.531Z" fill="white"/>
<path d="M150.127 186.704C150.581 188.839 148.971 190.989 146.531 191.508C144.092 192.027 141.746 190.716 141.292 188.582C140.838 186.447 142.448 184.296 144.888 183.777C147.328 183.259 149.673 184.569 150.127 186.704Z" fill="white"/>
<path d="M202.87 170.436C205.935 177.724 214.096 181.245 221.099 178.3C228.101 175.355 231.293 167.059 228.228 159.771C225.163 152.483 217.001 148.963 209.999 151.908C202.997 154.853 199.805 163.148 202.87 170.436Z" fill="#313937"/>
<path d="M204.855 161.796C205.633 165.455 209.478 167.739 213.442 166.896C217.407 166.054 219.99 162.404 219.212 158.744C218.434 155.085 214.59 152.801 210.625 153.644C206.661 154.486 204.077 158.136 204.855 161.796Z" fill="white"/>
<path d="M210.867 173.793C211.321 175.927 213.666 177.238 216.106 176.719C218.546 176.2 220.156 174.049 219.702 171.915C219.248 169.78 216.903 168.47 214.463 168.988C212.023 169.507 210.413 171.658 210.867 173.793Z" fill="white"/>
<path fill-rule="evenodd" clip-rule="evenodd" d="M166.475 189.035C165.368 183.827 170.164 179.558 179.296 177.617C188.575 175.645 194.777 177.576 195.884 182.784C197.371 189.78 191.998 196.873 183.9 198.594C175.779 200.32 167.962 196.031 166.475 189.035Z" fill="#313937"/>
<path d="M160.365 210.434C159.874 209.117 160.544 207.653 161.861 207.163C163.177 206.673 164.642 207.342 165.132 208.658C166.134 211.348 168.175 213.166 171.36 213.857C175.584 214.498 178.692 213.185 180.523 210.905C182.405 208.561 183.312 204.724 182.056 199.681C181.717 198.318 182.547 196.939 183.91 196.599C185.273 196.26 186.653 197.089 186.992 198.452C188.523 204.599 187.618 210.194 184.489 214.091C181.319 218.038 176.242 219.773 170.492 218.87L170.426 218.861L170.359 218.847C165.525 217.822 162.01 214.851 160.365 210.434Z" fill="#313937"/>
<path d="M211.164 199.635C211.077 198.233 209.869 197.167 208.467 197.255C207.066 197.342 205.999 198.549 206.087 199.951C206.266 202.816 205.141 205.307 202.512 207.234C198.914 209.538 195.541 209.603 192.941 208.265C190.268 206.889 187.879 203.752 186.975 198.634C186.731 197.251 185.411 196.329 184.028 196.573C182.645 196.817 181.721 198.136 181.966 199.519C183.067 205.757 186.169 210.5 190.614 212.788C195.114 215.104 200.459 214.624 205.344 211.461L205.401 211.425L205.456 211.385C209.455 208.483 211.458 204.339 211.164 199.635Z" fill="#313937"/>
<path d="M182.627 202.508L181.146 195.542C180.854 194.168 181.731 192.818 183.105 192.526C184.479 192.234 185.83 193.111 186.122 194.485L187.602 201.451C187.894 202.824 187.017 204.175 185.643 204.467C184.269 204.759 182.919 203.882 182.627 202.508Z" fill="#313937"/>
<path d="M176.511 182.134C177.488 181.926 178.449 182.55 178.657 183.527C178.864 184.504 178.24 185.465 177.263 185.673C175.274 186.096 174.161 187.58 173.768 188.265C173.271 189.132 172.166 189.431 171.299 188.934C170.433 188.438 170.133 187.332 170.63 186.466C171.257 185.372 173.075 182.864 176.511 182.134Z" fill="white"/>
<path d="M364.869 254.192C333.104 254.192 309.32 230.564 309.32 199.269C309.32 167.974 333.104 144.346 364.869 144.346C396.633 144.346 420.417 167.974 420.417 199.269C420.417 230.564 396.633 254.192 364.869 254.192ZM364.869 236.041C384.428 236.041 397.572 221.332 397.572 199.269C397.572 177.206 384.428 162.498 364.869 162.498C345.309 162.498 332.165 177.206 332.165 199.269C332.165 221.332 345.309 236.041 364.869 236.041Z" fill="white"/>
<path d="M477.737 171.73C494.48 171.73 505.12 183.309 505.12 201.303V241.987C505.12 249.185 501.678 252.94 495.106 252.94C488.534 252.94 485.092 249.185 485.092 241.987V204.433C485.092 194.262 479.772 188.472 470.696 188.472C461.62 188.472 456.3 194.418 456.3 204.433V241.987C456.3 249.185 452.858 252.94 446.286 252.94C439.714 252.94 436.271 249.185 436.271 241.987V182.057C436.271 176.111 439.401 172.825 444.878 172.825C450.041 172.825 453.014 175.954 453.484 181.744L453.64 184.248C458.178 176.424 467.097 171.73 477.737 171.73Z" fill="white"/>
<path d="M560.099 171.73C581.85 171.73 596.402 186.125 596.402 207.562V210.222C596.402 216.481 592.959 220.08 586.544 220.08H539.758C542.105 231.972 550.242 238.231 563.385 238.231C568.706 238.231 573.713 237.136 579.346 234.946C581.224 234.163 582.945 233.85 584.823 233.85C589.047 233.85 592.177 236.98 592.177 241.048C592.177 244.334 589.83 247.307 585.448 249.654C580.128 252.627 571.992 254.192 562.76 254.192C536.628 254.192 519.103 237.606 519.103 212.883C519.103 188.942 536.315 171.73 560.099 171.73ZM559.004 187.064C548.677 187.064 541.635 193.949 539.758 205.528H576.686C575.903 194.106 569.332 187.064 559.004 187.064Z" fill="white"/>
<path d="M655.988 171.73C678.364 171.73 693.855 188.472 693.855 212.883C693.855 237.293 678.364 254.192 655.988 254.192C644.096 254.192 634.082 249.341 628.761 241.048L628.449 244.021C627.979 249.967 625.006 253.097 619.842 253.097C614.366 253.097 611.236 249.654 611.236 243.708V153.422C611.236 146.224 614.679 142.469 621.251 142.469C627.823 142.469 631.265 146.224 631.265 153.422V181.588C636.898 175.329 645.661 171.73 655.988 171.73ZM652.233 238.231C664.594 238.231 673.357 227.591 673.357 212.883C673.357 198.174 664.594 187.69 652.233 187.69C639.871 187.69 631.109 198.174 631.109 212.883C631.109 227.591 639.871 238.231 652.233 238.231Z" fill="white"/>
<path d="M743.622 171.73C765.372 171.73 779.924 186.125 779.924 207.562V210.222C779.924 216.481 776.481 220.08 770.066 220.08H723.28C725.627 231.972 733.764 238.231 746.908 238.231C752.228 238.231 757.235 237.136 762.868 234.946C764.746 234.163 766.467 233.85 768.345 233.85C772.569 233.85 775.699 236.98 775.699 241.048C775.699 244.334 773.352 247.307 768.97 249.654C763.65 252.627 755.514 254.192 746.282 254.192C720.15 254.192 702.625 237.606 702.625 212.883C702.625 188.942 719.837 171.73 743.622 171.73ZM742.526 187.064C732.199 187.064 725.157 193.949 723.28 205.528H760.208C759.426 194.106 752.854 187.064 742.526 187.064Z" fill="white"/>
<path d="M826.836 171.73C848.742 171.73 859.539 181.9 859.539 202.555V243.708C859.539 249.654 856.253 253.097 850.933 253.097C845.769 253.097 842.64 249.967 842.17 244.021V243.865C836.85 250.593 828.713 254.192 818.542 254.192C800.861 254.192 789.595 243.708 789.595 227.435C789.595 210.535 801.33 199.895 819.794 199.895C828.244 199.895 835.285 202.086 839.98 206.154V201.46C839.98 191.915 835.129 187.377 824.958 187.377C819.951 187.377 815.1 188.472 809.154 190.976C807.433 191.758 805.555 192.228 803.677 192.228C799.296 192.228 796.167 189.255 796.167 185.186C796.167 181.588 798.514 178.614 803.208 176.424C809.467 173.451 817.76 171.73 826.836 171.73ZM824.489 238.544C833.408 238.544 839.667 233.537 839.667 226.339C839.667 219.142 833.408 214.134 824.489 214.134C815.569 214.134 809.31 219.142 809.31 226.339C809.31 233.537 815.569 238.544 824.489 238.544Z" fill="white"/>
<path d="M915.716 172.043C922.288 172.043 925.887 175.329 925.887 181.275C925.887 187.847 922.131 191.132 913.525 191.915C903.354 192.854 899.443 198.487 899.443 212.57V241.987C899.443 249.185 896 252.94 889.428 252.94C882.856 252.94 879.414 249.185 879.414 241.987V181.588C879.414 176.111 882.387 172.825 887.707 172.825C892.558 172.825 895.687 175.798 896.157 181.275L896.626 187.69C900.538 177.676 907.11 172.043 915.716 172.043Z" fill="white"/>
<defs>
<linearGradient id="paint0_linear_2440_4009" x1="1000" y1="400" x2="724.138" y2="-289.655" gradientUnits="userSpaceOnUse">
<stop stop-color="#35B0A6"/>
<stop offset="1" stop-color="#4CD6AA"/>
</linearGradient>
</defs>
</svg>
