<svg width="800" height="800" viewBox="0 0 800 800" fill="none" xmlns="http://www.w3.org/2000/svg">
<rect width="800" height="800" fill="url(#paint0_linear_2440_3890)"/>
<path fill-rule="evenodd" clip-rule="evenodd" d="M516.505 469.154C519.156 470.721 523.55 473.671 523.064 478.501L522.928 479.443L522.9 479.628C521.66 486.302 514.889 492.112 507.697 493.551L507.484 493.579C439.88 506.999 389.677 506.862 341.904 501.701C319.954 499.33 299.709 493.015 281.929 481.665C269.003 473.418 257.553 462.996 247.78 449.765C234.098 431.24 223.844 407.368 217.298 376.548C208.585 335.517 213.423 293.79 230.823 257.468L232.518 254.028C232.737 253.606 232.805 253 232.489 252.226C232.164 251.436 231.517 250.731 230.727 250.362C225.236 247.734 220.337 243.976 216.323 239.225C214.173 236.692 212.345 233.947 210.854 231.059C207.304 224.168 205.672 216.386 206.133 208.32L206.314 206.205C207.51 194.939 212.769 184.618 221.229 176.785L222.84 175.351C227.643 171.304 233.097 168.3 238.893 166.424C244.031 164.759 249.444 163.984 254.928 164.197L256.184 164.27L258.188 164.435L258.323 164.46C263.51 165.041 268.457 166.478 272.998 168.7C278.011 171.162 282.523 174.572 286.312 178.834L287.006 179.635L287.882 180.702C288.74 181.791 289.546 182.909 290.299 184.074C291.311 185.631 293.07 185.884 293.882 185.514L294.216 185.318C312.116 173.563 332.808 164.349 356.126 158.372C381.147 151.943 405.332 150.258 428.077 152.621L428.447 152.632C429.285 152.597 430.669 151.695 430.919 149.923C431.077 148.833 431.277 147.752 431.515 146.662L431.775 145.569L432.074 144.449C438.575 121.079 463.289 107.411 487.46 113.41C512.02 119.488 527.538 143.763 521.523 167.817C521.32 168.613 521.101 169.411 520.856 170.197C520.602 171.003 520.327 171.796 520.027 172.594C518.777 175.939 517.139 179.098 515.132 181.996C514.652 182.689 514.439 183.558 514.533 184.361C514.568 184.694 514.652 184.981 514.771 185.206C514.918 185.497 515.123 185.722 515.358 185.905L516.042 186.404L518.299 188.091C548.921 211.341 571.778 244.262 583.519 282.59L584.246 284.996C599.246 335.541 595.356 373.719 577.951 405.726C564.19 431.033 541.828 450.289 513.922 465.03C513.697 465.149 513.509 465.315 513.361 465.507C513.13 465.807 513.006 466.192 513.015 466.637C513.025 467.316 513.333 467.734 513.827 467.951L515.253 468.507L515.537 468.644L516.238 469.014L516.384 469.091L516.505 469.154Z" fill="white"/>
<path d="M292.608 331.914C294.796 342.208 284.298 353.161 269.16 356.379C254.022 359.597 239.976 353.86 237.788 343.567C235.6 333.273 246.098 322.319 261.237 319.102C276.375 315.884 290.42 321.62 292.608 331.914Z" fill="#FFBEBF"/>
<path d="M555.744 275.977C557.932 286.271 547.433 297.224 532.295 300.442C517.157 303.659 503.112 297.923 500.924 287.629C498.736 277.335 509.234 266.382 524.372 263.164C539.51 259.946 553.556 265.683 555.744 275.977Z" fill="#FFBEBF"/>
<path fill-rule="evenodd" clip-rule="evenodd" d="M239.228 239.525C250.293 222.01 264.206 206.304 280.48 193.157C273.284 185.922 262.676 182.375 251.953 184.654C235.158 188.224 224.437 204.733 228.007 221.527C229.585 228.949 233.689 235.184 239.228 239.525Z" fill="#41C3A8"/>
<path fill-rule="evenodd" clip-rule="evenodd" d="M501.769 180.551C484.536 169.051 465.438 160.361 445.223 154.97C448.855 145.434 457.103 137.879 467.826 135.6C484.621 132.03 501.129 142.751 504.699 159.545C506.277 166.967 505.063 174.333 501.769 180.551Z" fill="#41C3A8"/>
<path d="M341.682 281.639C342.008 297.334 330.047 310.311 314.967 310.624C299.887 310.938 287.398 298.468 287.072 282.774C286.746 267.079 298.707 254.102 313.787 253.788C328.867 253.475 341.356 265.944 341.682 281.639Z" fill="#313937"/>
<path d="M329.43 267.93C330.975 275.197 326.336 282.339 319.07 283.884C311.804 285.428 304.661 280.79 303.117 273.523C301.572 266.257 306.21 259.115 313.477 257.57C320.743 256.026 327.886 260.664 329.43 267.93Z" fill="white"/>
<path d="M330.404 294.082C331.305 298.321 328.109 302.592 323.265 303.621C318.42 304.651 313.763 302.05 312.862 297.811C311.961 293.572 315.158 289.302 320.002 288.272C324.846 287.242 329.503 289.844 330.404 294.082Z" fill="white"/>
<path d="M435.128 261.781C441.214 276.251 457.419 283.242 471.322 277.394C485.226 271.547 491.564 255.076 485.478 240.605C479.392 226.135 463.187 219.144 449.284 224.992C435.38 230.839 429.042 247.31 435.128 261.781Z" fill="#313937"/>
<path d="M439.07 244.624C440.614 251.89 448.248 256.424 456.12 254.751C463.991 253.077 469.121 245.831 467.576 238.564C466.032 231.298 458.398 226.764 450.527 228.437C442.655 230.11 437.525 237.357 439.07 244.624Z" fill="white"/>
<path d="M451.008 268.444C451.909 272.683 456.567 275.284 461.411 274.254C466.255 273.225 469.452 268.954 468.551 264.715C467.65 260.476 462.992 257.875 458.148 258.905C453.304 259.934 450.107 264.205 451.008 268.444Z" fill="white"/>
<path fill-rule="evenodd" clip-rule="evenodd" d="M362.865 298.714C360.667 288.374 370.19 279.898 388.321 276.044C406.745 272.128 419.059 275.962 421.257 286.303C424.21 300.194 413.541 314.276 397.462 317.694C381.337 321.121 365.818 312.606 362.865 298.714Z" fill="#313937"/>
<path d="M350.733 341.201C349.76 338.588 351.09 335.68 353.703 334.707C356.317 333.734 359.225 335.062 360.199 337.675C362.188 343.016 366.241 346.627 372.565 347.999C380.953 349.272 387.122 346.665 390.758 342.138C394.495 337.484 396.296 329.865 393.802 319.852C393.129 317.146 394.777 314.407 397.483 313.733C400.189 313.059 402.929 314.705 403.603 317.412C406.643 329.616 404.846 340.725 398.632 348.463C392.339 356.299 382.258 359.745 370.841 357.953L370.709 357.933L370.578 357.906C360.98 355.871 354 349.973 350.733 341.201Z" fill="#313937"/>
<path d="M451.598 319.759C451.424 316.976 449.027 314.861 446.243 315.034C443.46 315.208 441.343 317.605 441.516 320.388C441.872 326.076 439.638 331.023 434.418 334.849C427.274 339.423 420.577 339.552 415.415 336.895C410.108 334.163 405.363 327.935 403.569 317.774C403.084 315.027 400.464 313.195 397.717 313.68C394.971 314.166 393.137 316.784 393.622 319.531C395.81 331.916 401.969 341.333 410.793 345.875C419.73 350.475 430.341 349.522 440.042 343.241L440.154 343.17L440.263 343.091C448.204 337.328 452.181 329.101 451.598 319.759Z" fill="#313937"/>
<path d="M394.935 325.458L391.995 311.627C391.415 308.899 393.156 306.217 395.884 305.638C398.612 305.058 401.294 306.799 401.874 309.527L404.814 323.358C405.393 326.086 403.652 328.767 400.924 329.347C398.196 329.927 395.515 328.186 394.935 325.458Z" fill="#313937"/>
<path d="M382.791 285.001C384.731 284.589 386.639 285.828 387.051 287.768C387.463 289.708 386.224 291.616 384.284 292.028C380.335 292.868 378.124 295.815 377.344 297.175C376.358 298.896 374.163 299.49 372.442 298.504C370.722 297.518 370.127 295.323 371.113 293.603C372.358 291.432 375.968 286.451 382.791 285.001Z" fill="white"/>
<path d="M149.869 663.192C118.104 663.192 94.3202 639.564 94.3202 608.269C94.3202 576.974 118.104 553.346 149.869 553.346C181.633 553.346 205.417 576.974 205.417 608.269C205.417 639.564 181.633 663.192 149.869 663.192ZM149.869 645.041C169.428 645.041 182.572 630.332 182.572 608.269C182.572 586.206 169.428 571.498 149.869 571.498C130.309 571.498 117.166 586.206 117.166 608.269C117.166 630.332 130.309 645.041 149.869 645.041Z" fill="white"/>
<path d="M262.737 580.73C279.48 580.73 290.121 592.309 290.121 610.303V650.987C290.121 658.185 286.678 661.94 280.106 661.94C273.534 661.94 270.092 658.185 270.092 650.987V613.433C270.092 603.262 264.772 597.472 255.696 597.472C246.621 597.472 241.3 603.418 241.3 613.433V650.987C241.3 658.185 237.858 661.94 231.286 661.94C224.714 661.94 221.272 658.185 221.272 650.987V591.057C221.272 585.111 224.401 581.825 229.878 581.825C235.041 581.825 238.014 584.954 238.484 590.744L238.64 593.248C243.178 585.424 252.097 580.73 262.737 580.73Z" fill="white"/>
<path d="M345.1 580.73C366.85 580.73 381.402 595.125 381.402 616.562V619.222C381.402 625.481 377.959 629.08 371.544 629.08H324.758C327.105 640.972 335.242 647.231 348.386 647.231C353.706 647.231 358.713 646.136 364.346 643.946C366.224 643.163 367.945 642.85 369.823 642.85C374.047 642.85 377.177 645.98 377.177 650.048C377.177 653.334 374.83 656.307 370.449 658.654C365.128 661.627 356.992 663.192 347.76 663.192C321.628 663.192 304.103 646.606 304.103 621.883C304.103 597.942 321.315 580.73 345.1 580.73ZM344.004 596.064C333.677 596.064 326.636 602.949 324.758 614.528H361.686C360.904 603.106 354.332 596.064 344.004 596.064Z" fill="white"/>
<path d="M440.988 580.73C463.364 580.73 478.855 597.472 478.855 621.883C478.855 646.293 463.364 663.192 440.988 663.192C429.096 663.192 419.082 658.341 413.762 650.048L413.449 653.021C412.979 658.967 410.006 662.097 404.842 662.097C399.366 662.097 396.236 658.654 396.236 652.708V562.422C396.236 555.224 399.679 551.469 406.251 551.469C412.823 551.469 416.265 555.224 416.265 562.422V590.588C421.898 584.329 430.661 580.73 440.988 580.73ZM437.233 647.231C449.594 647.231 458.357 636.591 458.357 621.883C458.357 607.174 449.594 596.69 437.233 596.69C424.871 596.69 416.109 607.174 416.109 621.883C416.109 636.591 424.871 647.231 437.233 647.231Z" fill="white"/>
<path d="M528.622 580.73C550.372 580.73 564.924 595.125 564.924 616.562V619.222C564.924 625.481 561.481 629.08 555.066 629.08H508.28C510.627 640.972 518.764 647.231 531.908 647.231C537.228 647.231 542.235 646.136 547.868 643.946C549.746 643.163 551.467 642.85 553.345 642.85C557.57 642.85 560.699 645.98 560.699 650.048C560.699 653.334 558.352 656.307 553.971 658.654C548.65 661.627 540.514 663.192 531.282 663.192C505.15 663.192 487.625 646.606 487.625 621.883C487.625 597.942 504.837 580.73 528.622 580.73ZM527.526 596.064C517.199 596.064 510.158 602.949 508.28 614.528H545.208C544.426 603.106 537.854 596.064 527.526 596.064Z" fill="white"/>
<path d="M611.836 580.73C633.742 580.73 644.539 590.9 644.539 611.555V652.708C644.539 658.654 641.253 662.097 635.933 662.097C630.769 662.097 627.64 658.967 627.17 653.021V652.865C621.85 659.593 613.714 663.192 603.543 663.192C585.861 663.192 574.595 652.708 574.595 636.435C574.595 619.535 586.33 608.895 604.794 608.895C613.244 608.895 620.285 611.086 624.98 615.154V610.46C624.98 600.915 620.129 596.377 609.958 596.377C604.951 596.377 600.1 597.472 594.154 599.976C592.433 600.758 590.555 601.228 588.677 601.228C584.296 601.228 581.167 598.255 581.167 594.186C581.167 590.588 583.514 587.614 588.208 585.424C594.467 582.451 602.76 580.73 611.836 580.73ZM609.489 647.544C618.408 647.544 624.667 642.537 624.667 635.339C624.667 628.142 618.408 623.134 609.489 623.134C600.57 623.134 594.311 628.142 594.311 635.339C594.311 642.537 600.57 647.544 609.489 647.544Z" fill="white"/>
<path d="M700.716 581.043C707.288 581.043 710.887 584.329 710.887 590.275C710.887 596.847 707.132 600.132 698.525 600.915C688.355 601.854 684.443 607.487 684.443 621.57V650.987C684.443 658.185 681 661.94 674.428 661.94C667.856 661.94 664.414 658.185 664.414 650.987V590.588C664.414 585.111 667.387 581.825 672.707 581.825C677.558 581.825 680.687 584.798 681.157 590.275L681.626 596.69C685.538 586.676 692.11 581.043 700.716 581.043Z" fill="white"/>
<defs>
<linearGradient id="paint0_linear_2440_3890" x1="800" y1="800" x2="-2.38419e-05" y2="2.38419e-05" gradientUnits="userSpaceOnUse">
<stop stop-color="#35B0A6"/>
<stop offset="1" stop-color="#4CD6AA"/>
</linearGradient>
</defs>
</svg>
